<?xml version="1.0" encoding="UTF-8"?>
<svg width="19px" height="19px" viewBox="0 0 19 19" version="1.1" xmlns="http://www.w3.org/2000/svg" xmlns:xlink="http://www.w3.org/1999/xlink">
    <!-- Generator: Sketch 63.1 (92452) - https://sketch.com -->
    <title>icon_mobile_close</title>
    <desc>Created with Sketch.</desc>
    <g id="Page-1" stroke="none" stroke-width="1" fill="none" fill-rule="evenodd">
        <path d="M9.17382812,18.9023438 C11.7089844,18.9023438 13.8717448,18.0071615 15.6621094,16.2167969 C17.452474,14.4264323 18.3476562,12.2708333 18.3476562,9.75 C18.3476562,7.22916667 17.452474,5.07356771 15.6621094,3.28320312 C13.8717448,1.49283854 11.7089844,0.59765625 9.17382812,0.59765625 C6.63867188,0.59765625 4.46875,1.5 2.6640625,3.3046875 C0.888020833,5.08072917 0,7.22916667 0,9.75 C0,12.2708333 0.895182292,14.4264323 2.68554688,16.2167969 C4.47591146,18.0071615 6.63867188,18.9023438 9.17382812,18.9023438 Z M12.4609375,14.3476562 L9.15234375,11.0390625 L5.88671875,14.3476562 L4.59765625,13.0585938 L7.86328125,9.75 L4.59765625,6.44140625 L5.88671875,5.15234375 L9.15234375,8.4609375 L12.4609375,5.15234375 L13.75,6.44140625 L10.4414062,9.75 L13.75,13.0585938 L12.4609375,14.3476562 Z" id="icon_mobile_close" fill="#FFFFFF" fill-rule="nonzero"></path>
    </g>
</svg>