<?xml version="1.0" encoding="UTF-8"?>
<svg width="72px" height="73px" viewBox="0 0 72 73" version="1.1" xmlns="http://www.w3.org/2000/svg" xmlns:xlink="http://www.w3.org/1999/xlink">
    <!-- Generator: Sketch 63.1 (92452) - https://sketch.com -->
    <title>wa</title>
    <desc>Created with Sketch.</desc>
    <g id="Page-1" stroke="none" stroke-width="1" fill="none" fill-rule="evenodd" opacity="0.7">
        <path d="M36,72.2857143 C40.875,72.2857143 45.5357143,71.3348214 49.9821429,69.4330357 C54.4285714,67.53125 58.2589286,64.9732143 61.4732143,61.7589286 C64.6875,58.5446429 67.2455357,54.7142857 69.1473214,50.2678571 C71.0491071,45.8214286 72,41.1607143 72,36.2857143 C72,31.4107143 71.0491071,26.75 69.1473214,22.3035714 C67.2455357,17.8571429 64.6875,14.0267857 61.4732143,10.8125 C58.2589286,7.59821429 54.4285714,5.04017857 49.9821429,3.13839286 C45.5357143,1.23660714 40.875,0.285714286 36,0.285714286 C31.125,0.285714286 26.4642857,1.23660714 22.0178571,3.13839286 C17.5714286,5.04017857 13.7410714,7.59821429 10.5267857,10.8125 C7.3125,14.0267857 4.75446429,17.8571429 2.85267857,22.3035714 C0.950892857,26.75 0,31.4107143 0,36.2857143 C0,41.1607143 0.950892857,45.8214286 2.85267857,50.2678571 C4.75446429,54.7142857 7.3125,58.5446429 10.5267857,61.7589286 C13.7410714,64.9732143 17.5714286,67.53125 22.0178571,69.4330357 C26.4642857,71.3348214 31.125,72.2857143 36,72.2857143 Z M36,67.1428571 C31.8214286,67.1428571 27.8303571,66.3258929 24.0267857,64.6919643 C20.2232143,63.0580357 16.9419643,60.8616071 14.1830357,58.1026786 C11.4241071,55.34375 9.22767857,52.0625 7.59375,48.2589286 C5.95982143,44.4553571 5.14285714,40.4642857 5.14285714,36.2857143 C5.14285714,32.1071429 5.95982143,28.1160714 7.59375,24.3125 C9.22767857,20.5089286 11.4241071,17.2276786 14.1830357,14.46875 C16.9419643,11.7098214 20.2232143,9.51339286 24.0267857,7.87946429 C27.8303571,6.24553571 31.8214286,5.42857143 36,5.42857143 C40.1785714,5.42857143 44.1696429,6.24553571 47.9732143,7.87946429 C51.7767857,9.51339286 55.0580357,11.7098214 57.8169643,14.46875 C60.5758929,17.2276786 62.7723214,20.5089286 64.40625,24.3125 C66.0401786,28.1160714 66.8571429,32.1071429 66.8571429,36.2857143 C66.8571429,40.4642857 66.0401786,44.4553571 64.40625,48.2589286 C62.7723214,52.0625 60.5758929,55.34375 57.8169643,58.1026786 C55.0580357,60.8616071 51.7767857,63.0580357 47.9732143,64.6919643 C44.1696429,66.3258929 40.1785714,67.1428571 36,67.1428571 Z M36,64.5714286 C39.8303571,64.5714286 43.4933036,63.828125 46.9888393,62.3415179 C50.484375,60.8549107 53.4977679,58.8459821 56.0290179,56.3147321 C58.5602679,53.7834821 60.5691964,50.7700893 62.0558036,47.2745536 C63.5424107,43.7790179 64.2857143,40.1160714 64.2857143,36.2857143 C64.2857143,32.4553571 63.5357143,28.7991071 62.0357143,25.3169643 C60.5625,21.8080357 58.5602679,18.7879464 56.0290179,16.2566964 C53.4977679,13.7254464 50.484375,11.7165179 46.9888393,10.2299107 C43.4933036,8.74330357 39.8303571,8 36,8 C32.1696429,8 28.5066964,8.74330357 25.0111607,10.2299107 C21.515625,11.7165179 18.5022321,13.7254464 15.9709821,16.2566964 C13.4397321,18.7879464 11.4308036,21.8013393 9.94419643,25.296875 C8.45758929,28.7924107 7.71428571,32.4553571 7.71428571,36.2857143 C7.71428571,40.1160714 8.45758929,43.7790179 9.94419643,47.2745536 C11.4308036,50.7700893 13.4397321,53.7834821 15.9709821,56.3147321 C18.5022321,58.8459821 21.515625,60.8549107 25.0111607,62.3415179 C28.5066964,63.828125 32.1696429,64.5714286 36,64.5714286 Z M36,26 C34.5803571,26 33.3683036,25.4977679 32.3638393,24.4933036 C31.359375,23.4888393 30.8571429,22.2767857 30.8571429,20.8571429 C30.8571429,19.4375 31.359375,18.2254464 32.3638393,17.2209821 C33.3683036,16.2165179 34.5803571,15.7142857 36,15.7142857 C37.4196429,15.7142857 38.6316964,16.2165179 39.6361607,17.2209821 C40.640625,18.2254464 41.1428571,19.4375 41.1428571,20.8571429 C41.1428571,22.2767857 40.6339286,23.4955357 39.6160714,24.5133929 C38.625,25.5044643 37.4196429,26 36,26 Z M42.4285714,58.1428571 C41.25,58.1428571 40.4464286,57.59375 40.0178571,56.4955357 L39.6964286,55.6919643 C38.25,51.96875 37.2991071,48.5 36.84375,45.2857143 L35.15625,45.2857143 C34.7008929,48.5 33.75,51.96875 32.3035714,55.6919643 L31.9821429,56.4955357 C31.5535714,57.59375 30.75,58.1428571 29.5714286,58.1428571 C29.1964286,58.1428571 28.8883929,58.0892857 28.6473214,57.9821429 C27.9776786,57.7142857 27.4955357,57.2589286 27.2008929,56.6160714 C26.90625,55.9732143 26.8928571,55.3169643 27.1607143,54.6473214 L27.5223214,53.8035714 C28.2723214,51.9017857 28.8214286,50.3549107 29.1696429,49.1629464 C29.5178571,47.9709821 29.8727679,45.8883929 30.234375,42.9151786 C30.5959821,39.9419643 30.8035714,36.3392857 30.8571429,32.1071429 C27.9375,31.7857143 23.8794643,31.0089286 18.6830357,29.7767857 C17.9866071,29.6160714 17.4575893,29.234375 17.0959821,28.6316964 C16.734375,28.0290179 16.6339286,27.3794643 16.7946429,26.6830357 C16.9553571,25.9866071 17.3370536,25.4575893 17.9397321,25.0959821 C18.5424107,24.734375 19.1919643,24.6339286 19.8883929,24.7946429 C26.8794643,26.4553571 32.25,27.2857143 36,27.2857143 C39.75,27.2857143 45.1205357,26.4553571 52.1116071,24.7946429 C52.8080357,24.6339286 53.4575893,24.734375 54.0602679,25.0959821 C54.6629464,25.4575893 55.0446429,25.9866071 55.2053571,26.6830357 C55.3660714,27.3794643 55.2589286,28.0357143 54.8839286,28.6517857 C54.5357143,29.2410714 54.0133929,29.6160714 53.3169643,29.7767857 C48.1205357,31.0089286 44.0625,31.7857143 41.1428571,32.1071429 C41.1964286,36.3392857 41.4040179,39.9419643 41.765625,42.9151786 C42.1272321,45.8883929 42.4821429,47.9709821 42.8303571,49.1629464 C43.1785714,50.3549107 43.7276786,51.9017857 44.4776786,53.8035714 L44.8392857,54.6473214 C45.1071429,55.3169643 45.09375,55.9732143 44.7991071,56.6160714 C44.5044643,57.2589286 44.0223214,57.7142857 43.3526786,57.9821429 C43.1116071,58.0892857 42.8035714,58.1428571 42.4285714,58.1428571 Z" id="wa" fill="#FFFFFF" fill-rule="nonzero"></path>
    </g>
</svg>