<?xml version="1.0" encoding="UTF-8"?>
<svg width="13px" height="13px" viewBox="0 0 13 13" version="1.1" xmlns="http://www.w3.org/2000/svg" xmlns:xlink="http://www.w3.org/1999/xlink">
    <!-- Generator: Sketch 63.1 (92452) - https://sketch.com -->
    <title>icon_plus_13</title>
    <desc>Created with Sketch.</desc>
    <g id="Page-1" stroke="none" stroke-width="1" fill="none" fill-rule="evenodd">
        <g id="icon_plus_13" fill="#000000">
            <path d="M11,0 C12.1045695,-2.02906125e-16 13,0.8954305 13,2 L13,11 C13,12.1045695 12.1045695,13 11,13 L2,13 C0.8954305,13 1.3527075e-16,12.1045695 0,11 L0,2 C-1.3527075e-16,0.8954305 0.8954305,2.02906125e-16 2,0 L11,0 Z M7,3 L6,3 L6,6 L3,6 L3,7 L6,7 L6,10 L7,10 L7,7 L10,7 L10,6 L7,6 L7,3 Z" id="combine"></path>
        </g>
    </g>
</svg>