<?xml version="1.0" encoding="UTF-8"?>
<svg width="22px" height="22px" viewBox="0 0 22 22" version="1.1" xmlns="http://www.w3.org/2000/svg" xmlns:xlink="http://www.w3.org/1999/xlink">
    <!-- Generator: Sketch 63.1 (92452) - https://sketch.com -->
    <title>icon_plus_22</title>
    <desc>Created with Sketch.</desc>
    <g id="Page-1" stroke="none" stroke-width="1" fill="none" fill-rule="evenodd">
        <g id="icon_plus_22" fill="#000000">
            <path d="M20,0 C21.1045695,-2.02906125e-16 22,0.8954305 22,2 L22,20 C22,21.1045695 21.1045695,22 20,22 L2,22 C0.8954305,22 1.3527075e-16,21.1045695 0,20 L0,2 C-1.3527075e-16,0.8954305 0.8954305,2.02906125e-16 2,0 L20,0 Z M12,5 L10,5 L10,10 L5,10 L5,12 L10,12 L10,17 L12,17 L12,12 L17,12 L17,10 L12,10 L12,5 Z" id="combine"></path>
        </g>
    </g>
</svg>