<?xml version="1.0" encoding="UTF-8"?>
<svg width="15px" height="15px" viewBox="0 0 15 15" version="1.1" xmlns="http://www.w3.org/2000/svg" xmlns:xlink="http://www.w3.org/1999/xlink">
    <!-- Generator: Sketch 63.1 (92452) - https://sketch.com -->
    <title>icon_plus_15</title>
    <desc>Created with Sketch.</desc>
    <g id="Page-1" stroke="none" stroke-width="1" fill="none" fill-rule="evenodd">
        <g id="icon_plus_15" fill="#000000">
            <path d="M13,0 C14.1045695,-2.02906125e-16 15,0.8954305 15,2 L15,13 C15,14.1045695 14.1045695,15 13,15 L2,15 C0.8954305,15 1.3527075e-16,14.1045695 0,13 L0,2 C-1.3527075e-16,0.8954305 0.8954305,2.02906125e-16 2,0 L13,0 Z M8,4 L7,4 L7,7 L4,7 L4,8 L7,8 L7,11 L8,11 L8,8 L11,8 L11,7 L8,7 L8,4 Z" id="combine"></path>
        </g>
    </g>
</svg>