<?xml version="1.0" encoding="UTF-8"?>
<svg width="183px" height="41px" viewBox="0 0 183 41" version="1.1" xmlns="http://www.w3.org/2000/svg" xmlns:xlink="http://www.w3.org/1999/xlink">
    <!-- Generator: Sketch 63.1 (92452) - https://sketch.com -->
    <title>cornell-reduced-white</title>
    <desc>Created with Sketch.</desc>
    <g id="Page-1" stroke="none" stroke-width="1" fill="none" fill-rule="evenodd">
        <g id="cornell-reduced-white" fill="#ffffff" fill-rule="nonzero">
            <g id="Layer_1_1_">
                <path d="M20.4314763,40.9657382 C9.14791086,40.9657382 0,31.7036212 0,20.4314763 C0,9.15933148 9.14791086,0 20.4314763,0 C31.7150418,0 40.8629526,9.14791086 40.8629526,20.4314763 C40.8629526,31.6922006 31.6922006,40.9657382 20.4314763,40.9657382 Z M20.4314763,2.23844011 C10.3927577,2.23844011 2.2270195,10.3927577 2.2270195,20.4428969 C2.2270195,30.4930362 10.381337,38.6473538 20.4314763,38.6473538 C30.4816156,38.6473538 38.6359331,30.4930362 38.6359331,20.4428969 C38.6245125,10.3699164 30.470195,2.23844011 20.4314763,2.23844011 Z" id="Shape"></path>
                <path d="M20.4314763,38.5103064 L20.1002786,38.3961003 C19.643454,38.1791086 8.05153203,33.154039 8.05153203,23.8805014 L8.05153203,7.37771588 L32.8342618,7.37771588 L32.8342618,24.1203343 C32.8342618,32.9370474 21.3451253,38.0877437 20.7855153,38.2933148 L20.4314763,38.5103064 Z M9.83314763,9.04512535 L9.83314763,23.891922 C9.83314763,31.2582173 18.6498607,35.837883 20.5456825,36.7286908 C22.3501393,35.837883 31.2582173,31.1440111 31.2582173,24.2231198 L31.2582173,9.14791086 L9.82172702,9.14791086 C9.83314763,9.14791086 9.83314763,9.04512535 9.83314763,9.04512535 Z" id="Shape"></path>
                <path d="M15.2008357,17.0852368 L14.983844,16.9710306 C14.983844,16.9710306 13.6362117,16.1830084 12.85961,15.6233983 C12.1857939,15.1665738 11.8545961,14.6183844 11.7289694,14.1615599 C11.7289694,14.0473538 11.7289694,12.6997214 11.7289694,10.0387187 L11.7289694,9.47910864 L18.7640669,9.47910864 L18.7640669,10.0387187 C18.7640669,12.7225627 18.7640669,14.0587744 18.7640669,14.1615599 C18.7640669,14.7211699 18.4328691,15.1665738 17.7590529,15.6233983 C16.8682451,16.1830084 15.6348189,16.9710306 15.5320334,16.9710306 L15.2008357,17.0852368 Z M12.7225627,10.4841226 C12.7225627,11.945961 12.7225627,13.8417827 12.7225627,14.0473538 C12.7225627,14.1615599 12.9395543,14.5041783 13.2821727,14.7211699 C13.8417827,15.0523677 14.629805,15.6119777 15.0866295,15.8518106 C15.543454,15.6348189 16.4342618,15.0637883 16.9824513,14.7211699 C17.1994429,14.6069638 17.5420613,14.3899721 17.5420613,14.1615599 C17.5420613,13.9445682 17.5420613,12.151532 17.5420613,10.5983287 L12.7339833,10.5983287 L12.7339833,10.4841226 L12.7225627,10.4841226 Z" id="Shape"></path>
                <path d="M26.1189415,17.0852368 L25.9019499,16.9710306 C25.9019499,16.9710306 24.5543175,16.1830084 23.7777159,15.6233983 C23.1038997,15.1665738 22.7727019,14.6183844 22.6470752,14.1615599 C22.6470752,14.0473538 22.6470752,12.6997214 22.6470752,10.0387187 L22.6470752,9.47910864 L29.6821727,9.47910864 L29.6821727,10.0387187 C29.6821727,12.7225627 29.6821727,14.0587744 29.6821727,14.1615599 C29.6821727,14.7211699 29.3509749,15.1665738 28.6771588,15.6233983 C27.786351,16.1830084 26.5529248,16.9710306 26.4501393,16.9710306 L26.1189415,17.0852368 Z M23.6749304,10.4841226 C23.6749304,11.945961 23.6749304,13.8417827 23.6749304,14.0473538 C23.6749304,14.1615599 23.891922,14.5041783 24.2345404,14.7211699 C24.7941504,15.0523677 25.5707521,15.6119777 26.0389972,15.8518106 C26.4958217,15.6348189 27.3752089,15.0637883 27.9348189,14.7211699 C28.1518106,14.6069638 28.494429,14.3899721 28.494429,14.1615599 C28.494429,13.9445682 28.494429,12.151532 28.494429,10.5983287 L23.6977716,10.5983287 L23.6977716,10.4841226 L23.6749304,10.4841226 Z" id="Shape"></path>
                <rect id="Rectangle" x="8.48551532" y="17.4164345" width="24.1089136" height="1.46183844"></rect>
                <path d="M20.4314763,32.0348189 C19.9746518,32.0348189 19.7576602,31.7036212 19.643454,31.5779944 C19.5292479,31.4637883 19.4264624,31.3610028 19.3122563,31.3610028 C18.6384401,31.3610028 18.1816156,31.3610028 17.6448468,31.4752089 C17.0852368,31.4752089 16.5142061,31.589415 15.6348189,31.589415 C14.7554318,31.589415 14.0816156,31.589415 14.0816156,31.589415 L13.4077994,31.589415 L13.4077994,20.3058496 L14.0816156,20.3058496 C14.5384401,20.3058496 15.0866295,20.3058496 15.9774373,20.3058496 C16.4342618,20.3058496 16.8682451,20.1916435 17.4392758,20.1916435 C17.7704735,20.1916435 18.1130919,20.0774373 18.4442897,20.0774373 C19.232312,19.9632312 19.9061281,20.1916435 19.997493,20.1916435 C20.2144847,20.1916435 20.3286908,20.3058496 20.5571031,20.4086351 C20.6713092,20.294429 20.8883008,20.294429 21.1167131,20.1916435 C21.1167131,20.1916435 21.9047354,20.0774373 22.6699164,20.0774373 C23.0011142,20.0774373 23.3437326,20.1916435 23.6749304,20.1916435 C24.2345404,20.3058496 24.6799443,20.3058496 25.1367688,20.3058496 C26.016156,20.3058496 26.5871866,20.3058496 27.0325905,20.3058496 L27.7064067,20.3058496 L27.7064067,31.589415 L27.0440111,31.589415 C27.0440111,31.589415 26.370195,31.589415 25.4908078,31.589415 C24.6,31.589415 24.0289694,31.4752089 23.4807799,31.4752089 C22.9211699,31.4752089 22.475766,31.3610028 21.8133705,31.3610028 C21.5963788,31.3610028 21.5963788,31.3610028 21.4821727,31.5779944 C21.1052925,31.8178273 20.8768802,32.0348189 20.4314763,32.0348189 Z M19.3122563,30.1275766 C19.8718663,30.1275766 20.3172702,30.3445682 20.5456825,30.5844011 C20.7626741,30.3674095 21.2194986,30.1275766 21.7791086,30.1275766 C22.4529248,30.1275766 23.0125348,30.1275766 23.5835655,30.2417827 C24.1431755,30.2417827 24.7142061,30.3559889 25.4793872,30.3559889 C25.810585,30.3559889 26.0389972,30.3559889 26.2674095,30.3559889 L26.2674095,21.6649025 C25.9362117,21.6649025 25.4793872,21.6649025 25.0339833,21.6649025 C24.5885794,21.6649025 24.0289694,21.5506964 23.4807799,21.5506964 C23.1495822,21.5506964 22.8069638,21.4364903 22.475766,21.4364903 C21.916156,21.3222841 21.3451253,21.4364903 21.3451253,21.4364903 C21.2309192,21.4364903 21.1281337,21.5506964 21.1281337,21.5506964 C21.1281337,21.5506964 21.1281337,21.5506964 21.2423398,21.4364903 L20.5685237,21.3222841 L19.8947075,21.4364903 C19.8947075,21.5506964 19.8947075,21.5506964 20.0089136,21.5506964 C20.0089136,21.5506964 20.0089136,21.5506964 19.791922,21.4364903 L19.791922,21.4364903 C19.791922,21.4364903 19.232312,21.3222841 18.6612813,21.4364903 C18.3300836,21.4364903 17.9874652,21.5506964 17.6562674,21.5506964 C17.0966574,21.6649025 16.5256267,21.6649025 16.1030641,21.6649025 C15.543454,21.6649025 15.2122563,21.6649025 14.8696379,21.6649025 L14.8696379,30.3559889 C15.0866295,30.3559889 15.4292479,30.3559889 15.6576602,30.3559889 C16.4456825,30.3559889 17.0052925,30.2417827 17.5534819,30.2417827 C18.0902507,30.1275766 18.5356546,30.1275766 19.3122563,30.1275766 Z" id="Shape"></path>
                <rect id="Rectangle" x="12.1743733" y="11.6147632" width="5.7902507" height="1.00501393"></rect>
                <rect id="Rectangle" x="19.8604457" y="17.7590529" width="1.3362117" height="19.8604457"></rect>
                <polygon id="Path" points="28.5857939 13.8417827 26.016156 12.1743733 23.6749304 13.8417827 23.0011142 13.0537604 26.016156 10.9409471 29.1339833 13.0537604"></polygon>
                <rect id="Rectangle" x="15.6233983" y="22.8754875" width="2.90083565" height="1.00501393"></rect>
                <rect id="Rectangle" x="15.6233983" y="25.2167131" width="2.90083565" height="1.00501393"></rect>
                <rect id="Rectangle" x="15.6233983" y="27.5807799" width="2.90083565" height="1.00501393"></rect>
                <rect id="Rectangle" x="22.0988858" y="22.8754875" width="2.90083565" height="1.00501393"></rect>
                <rect id="Rectangle" x="22.0988858" y="25.2167131" width="2.90083565" height="1.00501393"></rect>
                <rect id="Rectangle" x="22.0988858" y="27.5807799" width="2.90083565" height="1.00501393"></rect>
            </g>
            <g id="Layer_3" transform="translate(48.194986, 13.704735)">
                <g id="Group">
                    <path d="M11.0665738,12.4142061 C10.0615599,13.0880223 8.26852368,13.4192201 7.16072423,13.4192201 C2.92367688,13.4192201 0.0228412256,10.9523677 0.0228412256,6.9551532 C0.0228412256,4.94512535 0.81086351,3.27771588 2.24986072,2.15849582 C3.59749304,1.02785515 5.35626741,0.491086351 7.37771588,0.491086351 C9.04512535,0.491086351 10.6211699,0.947910864 11.5005571,1.27910864 C11.2835655,2.16991643 11.1693593,3.07214485 11.1693593,3.96295265 L10.6097493,3.96295265 L10.6097493,2.60389972 C10.6097493,2.14707521 9.93593315,1.81587744 9.05654596,1.47325905 C8.49693593,1.25626741 7.70891365,1.14206128 7.04651811,1.14206128 C3.68885794,1.14206128 1.91866295,3.60891365 1.91866295,6.61253482 C1.91866295,10.175766 4.25988858,12.4142061 7.82311978,12.4142061 C9.17075209,12.4142061 10.6211699,11.9573816 11.3977716,11.2835655 L11.5119777,11.5005571 L11.0665738,12.4142061 Z" id="Path"></path>
                    <path d="M15.5548747,13.3164345 C13.3278552,13.3164345 11.7746518,11.5119777 11.7746518,9.19359331 C11.7746518,6.5097493 13.4420613,4.61392758 16.3543175,4.61392758 C18.581337,4.61392758 20.3743733,6.4183844 20.3743733,8.63398329 C20.3743733,11.3178273 18.4785515,13.3278552 15.6805014,13.3278552 L15.5662953,13.3278552 L15.5662953,13.3164345 L15.5548747,13.3164345 L15.5548747,13.3164345 Z M13.4192201,8.40557103 C13.4192201,10.3013928 14.0930362,12.7568245 16.4342618,12.7568245 C18.1016713,12.7568245 18.7754875,11.089415 18.7754875,9.51337047 C18.7754875,7.17214485 17.6448468,5.27632312 15.9774373,5.27632312 C13.9788301,5.16211699 13.4192201,6.71532033 13.4192201,8.40557103 Z" id="Shape"></path>
                    <path d="M21.6763231,7.16072423 C21.6763231,6.60111421 21.6763231,6.15571031 21.562117,6.03008357 C21.4479109,5.91587744 21.2309192,5.81309192 20.8883008,5.81309192 L20.2144847,5.81309192 L20.2144847,5.35626741 C21.2194986,5.24206128 22.3387187,4.8994429 23.0125348,4.56824513 L23.1267409,4.68245125 L23.1267409,6.48690808 L23.1267409,6.48690808 L24.1317549,5.35626741 C24.5885794,4.79665738 25.1253482,4.56824513 25.5821727,4.56824513 C25.9133705,4.56824513 26.2559889,4.68245125 26.370195,4.78523677 L26.2559889,6.90947075 L25.9247911,6.90947075 C25.7077994,6.45264624 25.3651811,6.12144847 24.6913649,6.12144847 C23.9033426,6.12144847 23.1381616,6.90947075 23.1381616,8.13147632 L23.1381616,11.237883 C23.1381616,11.6947075 23.1381616,12.1286908 23.2523677,12.2428969 C23.3665738,12.3571031 23.5835655,12.4598886 24.04039,12.4598886 L24.9311978,12.4598886 L24.9311978,13.0194986 C24.04039,13.0194986 23.2637883,13.0194986 22.3615599,13.0194986 C21.4707521,13.0194986 20.8083565,13.0194986 20.1345404,13.0194986 L20.1345404,12.4598886 L20.9225627,12.4598886 C21.2537604,12.4598886 21.3793872,12.3456825 21.4821727,12.2428969 C21.5963788,12.0259053 21.5963788,11.6832869 21.5963788,11.237883 L21.5963788,7.11504178 L21.6649025,7.11504178 L21.6649025,7.13788301 L21.6763231,7.13788301 L21.6763231,7.16072423 Z" id="Path"></path>
                    <path d="M29.9448468,11.1922006 C29.9448468,11.6490251 29.9448468,12.0830084 30.0590529,12.1972145 C30.1732591,12.3114206 30.2760446,12.4142061 30.618663,12.4142061 L31.4066852,12.4142061 L31.4066852,12.9738162 C30.7328691,12.9738162 30.0590529,12.9738162 29.1796657,12.9738162 C28.3002786,12.9738162 27.6264624,12.9738162 26.9526462,12.9738162 L26.9526462,12.4142061 L27.7406685,12.4142061 C28.0718663,12.4142061 28.197493,12.3 28.3002786,12.1972145 C28.4144847,11.9802228 28.4144847,11.6376045 28.4144847,11.1922006 L28.4144847,7.16072423 C28.4144847,6.60111421 28.4144847,6.15571031 28.3002786,6.03008357 C28.1860724,5.90445682 27.9690808,5.81309192 27.6264624,5.81309192 L27.0668524,5.81309192 L27.0668524,5.35626741 C28.0718663,5.24206128 29.1910864,4.8994429 29.8649025,4.56824513 L29.9791086,4.68245125 L29.9791086,6.2356546 L29.9791086,6.2356546 L31.3267409,5.10501393 C31.7835655,4.77381616 32.1147632,4.64818942 32.7885794,4.64818942 C34.9128134,4.64818942 35.689415,5.77883008 35.689415,7.7545961 L35.689415,11.2036212 C35.689415,11.6604457 35.689415,12.094429 35.8036212,12.2086351 C35.9178273,12.3228412 36.0206128,12.4256267 36.3632312,12.4256267 L37.1512535,12.4256267 L37.1512535,12.9852368 C36.694429,12.9852368 36.1462396,12.9852368 35.689415,12.9852368 C35.2325905,12.9852368 34.6844011,12.9852368 34.2275766,12.9852368 L34.2275766,7.96016713 C34.2275766,6.49832869 33.3367688,5.73314763 32.2175487,5.73314763 C31.0869081,5.73314763 29.9905292,6.62395543 29.9905292,7.4005571 L29.9448468,11.1922006 L29.9448468,11.1922006 Z" id="Path"></path>
                    <path d="M44.5632312,7.83454039 C44.5632312,8.05153203 44.5632312,8.2913649 44.5632312,8.62256267 C43.4325905,8.83955432 42.4389972,8.83955432 41.3197772,8.83955432 L38.7501393,8.83955432 C38.7501393,10.9637883 39.7551532,12.4027855 41.9935933,12.4027855 C42.8844011,12.4027855 43.5467967,11.945961 44.2206128,11.5119777 L44.4376045,11.7289694 L44.1064067,12.2885794 C43.9922006,12.505571 42.4389972,13.2935933 41.205571,13.2935933 C38.521727,13.2935933 37.0827298,11.6261838 37.0827298,9.17075209 C37.0827298,7.37771588 37.5395543,6.37270195 38.4303621,5.72172702 C38.7615599,5.50473538 39.1041783,5.16211699 39.5610028,5.04791086 C40.2348189,4.71671309 40.6916435,4.59108635 41.3654596,4.59108635 C43.1128134,4.59108635 44.5632312,5.83593315 44.5632312,7.83454039 Z M38.7615599,7.94874652 L38.7615599,8.16573816 C39.5495822,8.27994429 40.3147632,8.27994429 40.9885794,8.27994429 C41.6623955,8.27994429 42.3362117,8.27994429 42.9986072,8.27994429 C42.9986072,6.61253482 42.4389972,5.26490251 41.1027855,5.26490251 C39.7665738,5.16211699 38.7615599,6.17855153 38.7615599,7.94874652 Z" id="Shape"></path>
                    <path d="M46.2306407,1.91866295 C46.2306407,1.46183844 46.2306407,1.13064067 45.7738162,1.13064067 L44.7688022,1.13064067 L44.7688022,0.685236769 C45.65961,0.571030641 46.664624,0.354038997 47.5668524,0.0114206128 L47.6810585,0.125626741 L47.6810585,11.1807799 C47.6810585,11.6376045 47.6810585,12.0715877 47.7952646,12.1857939 C47.9094708,12.3 48.0122563,12.4027855 48.3548747,12.4027855 L49.1428969,12.4027855 L49.1428969,12.9623955 C48.4690808,12.9623955 47.7952646,12.9623955 46.9158774,12.9623955 C46.0364903,12.9623955 45.3626741,12.9623955 44.6888579,12.9623955 L44.6888579,12.4027855 L45.4768802,12.4027855 C45.808078,12.4027855 45.9337047,12.2885794 46.0364903,12.1857939 C46.1506964,11.9688022 46.1506964,11.6261838 46.1506964,11.1807799 L46.1506964,1.91866295 L46.2306407,1.91866295 L46.2306407,1.91866295 Z" id="Path"></path>
                    <path d="M50.7189415,1.91866295 C50.7189415,1.46183844 50.7189415,1.13064067 50.262117,1.13064067 L49.2571031,1.13064067 L49.2571031,0.685236769 C50.1479109,0.571030641 51.1529248,0.354038997 52.0551532,0.0114206128 L52.1693593,0.125626741 L52.1693593,11.1807799 C52.1693593,11.6376045 52.1693593,12.0715877 52.2835655,12.1857939 C52.3977716,12.3 52.5005571,12.4027855 52.8431755,12.4027855 L53.6311978,12.4027855 L53.6311978,12.9623955 C52.9573816,12.9623955 52.2835655,12.9623955 51.4041783,12.9623955 C50.5133705,12.9623955 49.8509749,12.9623955 49.1771588,12.9623955 L49.1771588,12.4027855 L49.9651811,12.4027855 C50.2963788,12.4027855 50.4220056,12.2885794 50.5247911,12.1857939 C50.6389972,11.9688022 50.6389972,11.6261838 50.6389972,11.1807799 L50.6389972,1.91866295 L50.7189415,1.91866295 L50.7189415,1.91866295 Z" id="Path"></path>
                    <path d="M59.0788301,2.82089136 C59.0788301,2.14707521 59.0788301,1.6902507 58.964624,1.47325905 C58.8504178,1.25626741 58.6334262,1.25626741 58.1766017,1.25626741 L57.2857939,1.25626741 L57.2857939,0.685236769 C58.1766017,0.685236769 59.0902507,0.685236769 59.9696379,0.685236769 C60.7576602,0.685236769 61.6370474,0.685236769 62.5392758,0.685236769 L62.5392758,1.2448468 L61.648468,1.2448468 C61.1916435,1.2448468 60.9746518,1.35905292 60.8604457,1.46183844 C60.7462396,1.67883008 60.7462396,2.1356546 60.7462396,2.80947075 L60.7462396,8.95376045 C60.7462396,11.5233983 62.0938719,12.1972145 64.4236769,12.1972145 C66.3194986,12.1972145 68.1011142,11.4091922 68.1011142,8.51977716 L68.1011142,2.82089136 C68.1011142,2.14707521 68.1011142,1.6902507 67.9869081,1.47325905 C67.8727019,1.25626741 67.6557103,1.25626741 67.1988858,1.25626741 L66.4108635,1.25626741 L66.4108635,0.708077994 C67.0846797,0.708077994 67.8727019,0.708077994 68.5350975,0.708077994 C69.197493,0.708077994 69.8827298,0.708077994 70.6593315,0.708077994 L70.6593315,1.26768802 L69.8827298,1.26768802 C69.4259053,1.26768802 69.2089136,1.38189415 69.0947075,1.48467967 C68.9805014,1.70167131 68.9805014,2.15849582 68.9805014,2.83231198 L68.9805014,7.96016713 C68.9805014,11.74039 67.518663,13.3278552 63.9554318,13.3278552 C60.94039,13.3278552 59.1587744,12.4370474 59.1587744,9.20501393 L59.1587744,2.83231198 L59.0788301,2.82089136 L59.0788301,2.82089136 Z" id="Path"></path>
                    <path d="M73.0233983,11.1922006 C73.0233983,11.6490251 73.0233983,12.0830084 73.1376045,12.1972145 C73.2518106,12.3114206 73.3545961,12.4142061 73.6972145,12.4142061 L74.4852368,12.4142061 L74.4852368,12.9738162 C73.8114206,12.9738162 73.1376045,12.9738162 72.2582173,12.9738162 C71.3788301,12.9738162 70.7050139,12.9738162 70.0311978,12.9738162 L70.0311978,12.4142061 L70.8192201,12.4142061 C71.1504178,12.4142061 71.2760446,12.3 71.3788301,12.1972145 C71.4930362,11.9802228 71.4930362,11.6376045 71.4930362,11.1922006 L71.4930362,7.16072423 C71.4930362,6.60111421 71.4930362,6.15571031 71.3788301,6.03008357 C71.264624,5.90445682 71.0476323,5.81309192 70.7050139,5.81309192 L70.0311978,5.81309192 L70.0311978,5.35626741 C71.0362117,5.24206128 72.1554318,4.8994429 72.8292479,4.56824513 L72.943454,4.68245125 L72.943454,6.2356546 L72.943454,6.2356546 L74.2910864,5.10501393 C74.7479109,4.77381616 75.0791086,4.64818942 75.7529248,4.64818942 C77.8771588,4.64818942 78.6537604,5.77883008 78.6537604,7.7545961 L78.6537604,11.2036212 C78.6537604,11.6604457 78.6537604,12.094429 78.7679666,12.2086351 C78.8821727,12.3228412 78.9849582,12.4256267 79.3275766,12.4256267 L80.1155989,12.4256267 L80.1155989,12.9852368 C79.6587744,12.9852368 79.110585,12.9852368 78.6537604,12.9852368 C78.1969359,12.9852368 77.6487465,12.9852368 77.191922,12.9852368 L77.191922,7.96016713 C77.191922,6.49832869 76.3011142,5.73314763 75.1818942,5.73314763 C74.0512535,5.73314763 72.9548747,6.62395543 72.9548747,7.4005571 L72.9548747,11.1236769 L73.0462396,11.1236769 L73.0233983,11.1922006 L73.0233983,11.1922006 Z" id="Path"></path>
                    <path d="M83.7473538,11.1922006 C83.7473538,11.6490251 83.7473538,12.0830084 83.8615599,12.1972145 C83.975766,12.3114206 84.0785515,12.4142061 84.4211699,12.4142061 L85.2091922,12.4142061 L85.2091922,12.9738162 C84.535376,12.9738162 83.8615599,12.9738162 82.9821727,12.9738162 C82.1027855,12.9738162 81.4289694,12.9738162 80.7551532,12.9738162 L80.7551532,12.4142061 L81.5431755,12.4142061 C81.8743733,12.4142061 82,12.3 82.1027855,12.1972145 C82.2169916,11.9802228 82.2169916,11.6376045 82.2169916,11.1922006 L82.2169916,7.16072423 C82.2169916,6.60111421 82.2169916,6.15571031 82.1027855,6.03008357 C81.9885794,5.90445682 81.7715877,5.81309192 81.4289694,5.81309192 L80.7551532,5.81309192 L80.7551532,5.35626741 C81.7601671,5.24206128 82.8793872,4.8994429 83.5532033,4.56824513 L83.6674095,4.68245125 L83.6674095,11.1693593 L83.7587744,11.1693593 L83.7587744,11.1922006 L83.7473538,11.1922006 L83.7473538,11.1922006 Z M83.8615599,1.6902507 C83.8615599,2.24986072 83.4047354,2.69526462 82.856546,2.69526462 C82.2969359,2.69526462 81.851532,2.23844011 81.851532,1.6902507 C81.851532,1.14206128 82.3083565,0.685236769 82.856546,0.685236769 C83.4047354,0.685236769 83.8615599,1.14206128 83.8615599,1.6902507 Z" id="Shape"></path>
                    <path d="M90.4398329,11.1922006 C90.1086351,11.8660167 89.9830084,12.5398329 89.6518106,13.0880223 L88.7610028,13.0880223 L85.6203343,5.83593315 C85.5061281,5.6189415 85.4033426,5.27632312 85.0607242,5.27632312 L84.5011142,5.27632312 L84.5011142,4.81949861 C85.1749304,4.81949861 85.8487465,4.81949861 86.6253482,4.81949861 C87.2991643,4.81949861 87.9729805,4.81949861 88.7495822,4.81949861 L88.7495822,5.27632312 L87.8587744,5.27632312 C87.5275766,5.27632312 87.4019499,5.39052925 87.4019499,5.60752089 C87.4019499,5.72172702 87.4019499,5.93871866 87.516156,6.28133705 L89.64039,11.4091922 C89.9715877,10.6211699 90.4284123,9.74178273 90.7710306,8.94233983 L91.5590529,7.04651811 C91.7760446,6.48690808 91.8902507,6.04150418 91.8902507,5.69888579 C91.8902507,5.36768802 91.7760446,5.24206128 91.4334262,5.24206128 L90.6454039,5.24206128 L90.6454039,4.78523677 C91.2050139,4.78523677 91.7760446,4.78523677 92.3128134,4.78523677 C92.8495822,4.78523677 93.443454,4.78523677 93.9802228,4.78523677 L93.9802228,5.24206128 L93.4206128,5.24206128 C92.9637883,5.24206128 92.6325905,5.91587744 92.4155989,6.47548747 L90.4398329,11.1922006 Z" id="Path"></path>
                    <path d="M101.152368,7.83454039 C101.152368,8.05153203 101.152368,8.2913649 101.152368,8.62256267 C100.021727,8.83955432 99.0281337,8.83955432 97.9089136,8.83955432 L95.3392758,8.83955432 C95.3392758,10.9637883 96.3442897,12.4027855 98.5827298,12.4027855 C99.462117,12.4027855 100.135933,11.945961 100.809749,11.5119777 L101.026741,11.7289694 L100.695543,12.2885794 C100.581337,12.505571 99.0281337,13.2935933 97.7947075,13.2935933 C95.1108635,13.2935933 93.6718663,11.6261838 93.6718663,9.17075209 C93.6718663,7.37771588 94.1286908,6.37270195 95.0194986,5.72172702 C95.3506964,5.50473538 95.6933148,5.16211699 96.1501393,5.04791086 C96.8239554,4.71671309 97.2807799,4.59108635 97.9545961,4.59108635 C99.7133705,4.59108635 101.152368,5.83593315 101.152368,7.83454039 Z M95.2364903,7.94874652 L95.2364903,8.16573816 C96.0245125,8.27994429 96.7896936,8.27994429 97.4635097,8.27994429 C98.1373259,8.27994429 98.8111421,8.27994429 99.4735376,8.27994429 C99.4735376,6.61253482 98.9139276,5.26490251 97.5777159,5.26490251 C96.3671309,5.16211699 95.2364903,6.17855153 95.2364903,7.94874652 Z" id="Shape"></path>
                    <path d="M103.162396,7.16072423 C103.162396,6.60111421 103.162396,6.15571031 103.048189,6.03008357 C102.933983,5.91587744 102.716992,5.81309192 102.374373,5.81309192 L101.700557,5.81309192 L101.700557,5.35626741 C102.705571,5.24206128 103.824791,4.8994429 104.498607,4.56824513 L104.612813,4.68245125 L104.612813,6.48690808 L104.612813,6.48690808 L105.617827,5.35626741 C106.074652,4.79665738 106.622841,4.56824513 107.079666,4.56824513 C107.410864,4.56824513 107.753482,4.68245125 107.867688,4.78523677 L107.753482,6.90947075 L107.422284,6.90947075 C107.205292,6.45264624 106.862674,6.12144847 106.188858,6.12144847 C105.400836,6.12144847 104.635655,6.90947075 104.635655,8.13147632 L104.635655,11.237883 C104.635655,11.6947075 104.635655,12.1286908 104.749861,12.2428969 C104.864067,12.3571031 105.081058,12.4598886 105.537883,12.4598886 L106.428691,12.4598886 L106.428691,13.0194986 C105.537883,13.0194986 104.761281,13.0194986 103.859053,13.0194986 C102.956825,13.0194986 102.30585,13.0194986 101.632033,13.0194986 L101.632033,12.4598886 L102.420056,12.4598886 C102.751253,12.4598886 102.87688,12.3456825 102.979666,12.2428969 C103.093872,12.0259053 103.093872,11.6832869 103.093872,11.237883 L103.093872,7.11504178 L103.162396,7.11504178 L103.162396,7.16072423 L103.162396,7.16072423 Z" id="Path"></path>
                    <path d="M109.306685,10.4155989 L109.306685,11.2036212 C109.306685,12.3342618 110.540111,12.7568245 111.647911,12.7568245 C112.778552,12.7568245 113.772145,12.0830084 113.772145,11.089415 C113.772145,10.529805 113.440947,10.0844011 112.892758,9.86740947 C112.104735,9.65041783 111.088301,9.41058496 110.208914,9.19359331 C109.329526,8.86239554 108.65571,8.30278552 108.65571,7.29777159 C108.65571,5.40194986 110.32312,4.7281337 112.01337,4.7281337 C112.892758,4.7281337 113.566574,4.94512535 114.354596,5.18495822 C114.354596,5.85877437 114.24039,6.53259053 114.24039,7.19498607 L113.783565,7.19498607 L113.783565,6.73816156 C113.783565,5.84735376 112.778552,5.27632312 111.659331,5.27632312 C110.106128,5.27632312 109.854875,6.16713092 109.854875,6.73816156 C109.854875,7.52618384 110.414485,7.97158774 111.750696,8.2 C113.87493,8.53119777 114.857103,9.0908078 114.857103,10.4270195 C114.857103,12.4370474 112.847075,13.4420613 110.951253,13.4420613 C110.060446,13.4420613 109.283844,13.3278552 108.484401,12.9852368 C108.701393,12.1972145 108.701393,11.3178273 108.701393,10.5183844 L109.261003,10.5183844 L109.261003,10.4041783 L109.318106,10.4041783 L109.306685,10.4155989 L109.306685,10.4155989 Z" id="Path"></path>
                    <path d="M118.568802,11.1922006 C118.568802,11.6490251 118.568802,12.0830084 118.683008,12.1972145 C118.797214,12.3114206 118.9,12.4142061 119.242618,12.4142061 L120.030641,12.4142061 L120.030641,12.9738162 C119.356825,12.9738162 118.683008,12.9738162 117.803621,12.9738162 C116.924234,12.9738162 116.250418,12.9738162 115.576602,12.9738162 L115.576602,12.4142061 L116.364624,12.4142061 C116.695822,12.4142061 116.821448,12.3 116.924234,12.1972145 C117.03844,11.9802228 117.03844,11.6376045 117.03844,11.1922006 L117.03844,7.16072423 C117.03844,6.60111421 117.03844,6.15571031 116.924234,6.03008357 C116.810028,5.90445682 116.593036,5.81309192 116.250418,5.81309192 L115.576602,5.81309192 L115.576602,5.35626741 C116.581616,5.24206128 117.700836,4.8994429 118.374652,4.56824513 L118.488858,4.68245125 L118.488858,11.1693593 L118.580223,11.1693593 L118.568802,11.1922006 L118.568802,11.1922006 Z M118.797214,1.6902507 C118.797214,2.24986072 118.34039,2.69526462 117.792201,2.69526462 C117.232591,2.69526462 116.787187,2.23844011 116.787187,1.6902507 C116.787187,1.14206128 117.244011,0.685236769 117.792201,0.685236769 C118.237604,0.696657382 118.797214,1.14206128 118.797214,1.6902507 Z" id="Shape"></path>
                    <path d="M119.790808,6.28133705 L119.790808,5.95013928 L121.13844,5.27632312 L121.13844,4.05431755 C121.13844,3.59749304 121.13844,3.16350975 121.024234,2.59247911 C121.69805,2.37548747 122.25766,2.1356546 122.577437,1.91866295 L122.794429,2.1356546 C122.680223,2.92367688 122.577437,3.94011142 122.577437,4.70529248 L122.577437,5.37910864 L125.04429,5.26490251 L124.930084,6.26991643 L122.703064,6.26991643 L122.703064,10.9637883 C122.703064,11.7518106 122.920056,12.1972145 123.708078,12.1972145 C124.164903,12.1972145 124.4961,11.9802228 124.713092,11.8660167 L124.930084,12.1972145 L124.039276,13.0880223 C123.92507,13.3050139 123.251253,13.3050139 122.908635,13.3050139 C122.029248,13.3050139 121.104178,12.8481894 121.104178,11.4091922 L121.104178,6.25849582 L119.790808,6.28133705 Z" id="Path"></path>
                    <path d="M132.296379,6.28133705 C132.410585,6.0643454 132.410585,5.95013928 132.410585,5.82451253 C132.410585,5.49331476 132.193593,5.36768802 131.622563,5.36768802 L131.165738,5.36768802 L131.165738,4.91086351 C131.725348,4.91086351 132.296379,4.91086351 132.833148,4.91086351 C133.392758,4.91086351 133.963788,4.91086351 134.500557,4.91086351 L134.500557,5.36768802 L134.043733,5.36768802 C133.586908,5.36768802 133.25571,5.92729805 132.581894,7.49192201 L129.018663,15.8746518 C128.459053,17.2222841 127.796657,18.1016713 126.334819,18.1016713 C126.003621,18.1016713 125.661003,17.9874652 125.444011,17.8846797 L125.900836,16.5370474 L126.117827,16.5370474 C126.334819,16.754039 126.791643,16.9938719 126.997214,16.9938719 L126.997214,16.9938719 C128.002228,16.8796657 128.550418,15.4406685 128.893036,14.6526462 L129.349861,13.5220056 L126.449025,6.26991643 C126.117827,5.59610028 125.889415,5.37910864 125.558217,5.37910864 L125.227019,5.37910864 L125.227019,4.92228412 C125.900836,4.92228412 126.574652,4.92228412 127.351253,4.92228412 C128.02507,4.92228412 128.698886,4.92228412 129.475487,4.92228412 L129.475487,5.37910864 L128.801671,5.37910864 C128.470474,5.37910864 128.242061,5.49331476 128.242061,5.83593315 C128.242061,6.05292479 128.242061,6.29275766 128.356267,6.5097493 L130.366295,11.4206128 L132.296379,6.28133705 Z" id="Path"></path>
                </g>
            </g>
        </g>
    </g>
</svg>