<?xml version="1.0" encoding="UTF-8"?>
<svg width="174px" height="39px" viewBox="0 0 174 39" version="1.1" xmlns="http://www.w3.org/2000/svg" xmlns:xlink="http://www.w3.org/1999/xlink">
    <!-- Generator: Sketch 63.1 (92452) - https://sketch.com -->
    <title>cornell-reduced-red</title>
    <desc>Created with Sketch.</desc>
    <g id="Page-1" stroke="none" stroke-width="1" fill="none" fill-rule="evenodd">
        <g id="cornell-reduced-red" fill="#B31B1B" fill-rule="nonzero">
            <g id="Layer_1_1_">
                <path d="M19.4348189,38.9674095 C8.70167131,38.9674095 0,30.1571031 0,19.4348189 C0,8.71253482 8.70167131,0 19.4348189,0 C30.1679666,0 38.8696379,8.70167131 38.8696379,19.4348189 C38.8696379,30.1462396 30.1462396,38.9674095 19.4348189,38.9674095 Z M19.4348189,2.12924791 C9.88579387,2.12924791 2.1183844,9.88579387 2.1183844,19.4456825 C2.1183844,29.005571 9.87493036,36.762117 19.4348189,36.762117 C28.9947075,36.762117 36.7512535,29.005571 36.7512535,19.4456825 C36.74039,9.86406685 28.983844,2.12924791 19.4348189,2.12924791 Z" id="Shape"></path>
                <path d="M19.4348189,36.6317549 L19.1197772,36.5231198 C18.6852368,36.3167131 7.65877437,31.5367688 7.65877437,22.7155989 L7.65877437,7.0178273 L31.2325905,7.0178273 L31.2325905,22.9437326 C31.2325905,31.3303621 20.3038997,36.229805 19.7715877,36.4253482 L19.4348189,36.6317549 Z M9.35348189,8.60389972 L9.35348189,22.7264624 C9.35348189,29.7334262 17.7401114,34.0896936 19.543454,34.9370474 C21.2598886,34.0896936 29.7334262,29.6247911 29.7334262,23.0415042 L29.7334262,8.70167131 L9.34261838,8.70167131 C9.35348189,8.70167131 9.35348189,8.60389972 9.35348189,8.60389972 Z" id="Shape"></path>
                <path d="M14.4593315,16.2518106 L14.2529248,16.1431755 C14.2529248,16.1431755 12.9710306,15.3935933 12.232312,14.8612813 C11.5913649,14.4267409 11.2763231,13.9052925 11.1568245,13.4707521 C11.1568245,13.362117 11.1568245,12.0802228 11.1568245,9.54902507 L11.1568245,9.01671309 L17.8487465,9.01671309 L17.8487465,9.54902507 C17.8487465,12.1019499 17.8487465,13.3729805 17.8487465,13.4707521 C17.8487465,14.0030641 17.5337047,14.4267409 16.8927577,14.8612813 C16.0454039,15.3935933 14.8721448,16.1431755 14.7743733,16.1431755 L14.4593315,16.2518106 Z M12.1019499,9.97270195 C12.1019499,11.3632312 12.1019499,13.1665738 12.1019499,13.362117 C12.1019499,13.4707521 12.3083565,13.7966574 12.6342618,14.0030641 C13.1665738,14.3181058 13.916156,14.8504178 14.3506964,15.0785515 C14.7852368,14.8721448 15.6325905,14.3289694 16.154039,14.0030641 C16.3604457,13.894429 16.686351,13.6880223 16.686351,13.4707521 C16.686351,13.2643454 16.686351,11.5587744 16.686351,10.081337 L12.1128134,10.081337 L12.1128134,9.97270195 L12.1019499,9.97270195 Z" id="Shape"></path>
                <path d="M24.8448468,16.2518106 L24.6384401,16.1431755 C24.6384401,16.1431755 23.356546,15.3935933 22.6178273,14.8612813 C21.9768802,14.4267409 21.6618384,13.9052925 21.5423398,13.4707521 C21.5423398,13.362117 21.5423398,12.0802228 21.5423398,9.54902507 L21.5423398,9.01671309 L28.2342618,9.01671309 L28.2342618,9.54902507 C28.2342618,12.1019499 28.2342618,13.3729805 28.2342618,13.4707521 C28.2342618,14.0030641 27.9192201,14.4267409 27.278273,14.8612813 C26.4309192,15.3935933 25.2576602,16.1431755 25.1598886,16.1431755 L24.8448468,16.2518106 Z M22.5200557,9.97270195 C22.5200557,11.3632312 22.5200557,13.1665738 22.5200557,13.362117 C22.5200557,13.4707521 22.7264624,13.7966574 23.0523677,14.0030641 C23.5846797,14.3181058 24.3233983,14.8504178 24.7688022,15.0785515 C25.2033426,14.8721448 26.0398329,14.3289694 26.5721448,14.0030641 C26.7785515,13.894429 27.1044568,13.6880223 27.1044568,13.4707521 C27.1044568,13.2643454 27.1044568,11.5587744 27.1044568,10.081337 L22.5417827,10.081337 L22.5417827,9.97270195 L22.5200557,9.97270195 Z" id="Shape"></path>
                <rect id="Rectangle" x="8.07158774" y="16.5668524" width="22.9328691" height="1.39052925"></rect>
                <path d="M19.4348189,30.4721448 C19.0002786,30.4721448 18.7938719,30.1571031 18.6852368,30.0376045 C18.5766017,29.9289694 18.4788301,29.8311978 18.370195,29.8311978 C17.7292479,29.8311978 17.2947075,29.8311978 16.7841226,29.9398329 C16.2518106,29.9398329 15.7086351,30.048468 14.8721448,30.048468 C14.0356546,30.048468 13.3947075,30.048468 13.3947075,30.048468 L12.7537604,30.048468 L12.7537604,19.3153203 L13.3947075,19.3153203 C13.8292479,19.3153203 14.3506964,19.3153203 15.1980501,19.3153203 C15.6325905,19.3153203 16.0454039,19.2066852 16.5885794,19.2066852 C16.9036212,19.2066852 17.2295265,19.0980501 17.5445682,19.0980501 C18.2941504,18.989415 18.9350975,19.2066852 19.0220056,19.2066852 C19.2284123,19.2066852 19.3370474,19.3153203 19.5543175,19.4130919 C19.6629526,19.3044568 19.8693593,19.3044568 20.0866295,19.2066852 C20.0866295,19.2066852 20.8362117,19.0980501 21.5640669,19.0980501 C21.8791086,19.0980501 22.2050139,19.2066852 22.5200557,19.2066852 C23.0523677,19.3153203 23.4760446,19.3153203 23.910585,19.3153203 C24.7470752,19.3153203 25.2902507,19.3153203 25.7139276,19.3153203 L26.3548747,19.3153203 L26.3548747,30.048468 L25.7247911,30.048468 C25.7247911,30.048468 25.083844,30.048468 24.2473538,30.048468 C23.4,30.048468 22.8568245,29.9398329 22.335376,29.9398329 C21.8030641,29.9398329 21.3793872,29.8311978 20.7493036,29.8311978 C20.5428969,29.8311978 20.5428969,29.8311978 20.4342618,30.0376045 C20.075766,30.2657382 19.8584958,30.4721448 19.4348189,30.4721448 Z M18.370195,28.6579387 C18.902507,28.6579387 19.3261838,28.8643454 19.543454,29.0924791 C19.7498607,28.8860724 20.1844011,28.6579387 20.7167131,28.6579387 C21.3576602,28.6579387 21.8899721,28.6579387 22.4331476,28.7665738 C22.9654596,28.7665738 23.5086351,28.8752089 24.2364903,28.8752089 C24.551532,28.8752089 24.7688022,28.8752089 24.9860724,28.8752089 L24.9860724,20.608078 C24.6710306,20.608078 24.2364903,20.608078 23.8128134,20.608078 C23.3891365,20.608078 22.8568245,20.4994429 22.335376,20.4994429 C22.0203343,20.4994429 21.694429,20.3908078 21.3793872,20.3908078 C20.8470752,20.2821727 20.3038997,20.3908078 20.3038997,20.3908078 C20.1952646,20.3908078 20.097493,20.4994429 20.097493,20.4994429 C20.097493,20.4994429 20.097493,20.4994429 20.2061281,20.3908078 L19.5651811,20.2821727 L18.924234,20.3908078 C18.924234,20.4994429 18.924234,20.4994429 19.0328691,20.4994429 C19.0328691,20.4994429 19.0328691,20.4994429 18.8264624,20.3908078 L18.8264624,20.3908078 C18.8264624,20.3908078 18.2941504,20.2821727 17.7509749,20.3908078 C17.4359331,20.3908078 17.1100279,20.4994429 16.7949861,20.4994429 C16.2626741,20.608078 15.7194986,20.608078 15.3175487,20.608078 C14.7852368,20.608078 14.470195,20.608078 14.1442897,20.608078 L14.1442897,28.8752089 C14.3506964,28.8752089 14.6766017,28.8752089 14.8938719,28.8752089 C15.643454,28.8752089 16.175766,28.7665738 16.6972145,28.7665738 C17.2077994,28.6579387 17.6314763,28.6579387 18.370195,28.6579387 Z" id="Shape"></path>
                <rect id="Rectangle" x="11.5805014" y="11.0481894" width="5.50779944" height="1"></rect>
                <rect id="Rectangle" x="18.8916435" y="16.8927577" width="1.27103064" height="18.8916435"></rect>
                <polygon id="Path" points="27.1913649 13.1665738 24.7470752 11.5805014 22.5200557 13.1665738 21.8791086 12.4169916 24.7470752 10.4072423 27.7128134 12.4169916"></polygon>
                <rect id="Rectangle" x="14.8612813" y="21.75961" width="2.75933148" height="1"></rect>
                <rect id="Rectangle" x="14.8612813" y="23.9866295" width="2.75933148" height="1"></rect>
                <rect id="Rectangle" x="14.8612813" y="26.235376" width="2.75933148" height="1"></rect>
                <rect id="Rectangle" x="21.0208914" y="21.75961" width="2.75933148" height="1"></rect>
                <rect id="Rectangle" x="21.0208914" y="23.9866295" width="2.75933148" height="1"></rect>
                <rect id="Rectangle" x="21.0208914" y="26.235376" width="2.75933148" height="1"></rect>
            </g>
            <g id="Layer_3" transform="translate(45.844011, 13.036212)">
                <g id="Group">
                    <path d="M10.5267409,11.8086351 C9.57075209,12.4495822 7.86518106,12.764624 6.81142061,12.764624 C2.7810585,12.764624 0.0217270195,10.4181058 0.0217270195,6.61587744 C0.0217270195,4.70389972 0.771309192,3.1178273 2.14011142,2.05320334 C3.42200557,0.977715877 5.09498607,0.467130919 7.0178273,0.467130919 C8.60389972,0.467130919 10.1030641,0.901671309 10.9395543,1.21671309 C10.7331476,2.06406685 10.6245125,2.92228412 10.6245125,3.76963788 L10.0922006,3.76963788 L10.0922006,2.47688022 C10.0922006,2.04233983 9.45125348,1.72729805 8.61476323,1.40139276 C8.08245125,1.19498607 7.33286908,1.08635097 6.70278552,1.08635097 C3.50891365,1.08635097 1.82506964,3.43286908 1.82506964,6.28997214 C1.82506964,9.67938719 4.05208914,11.8086351 7.44150418,11.8086351 C8.72339833,11.8086351 10.1030641,11.3740947 10.8417827,10.7331476 L10.9504178,10.9395543 L10.5267409,11.8086351 Z" id="Path"></path>
                    <path d="M14.7961003,12.6668524 C12.6777159,12.6668524 11.2002786,10.9504178 11.2002786,8.74512535 C11.2002786,6.19220056 12.786351,4.38885794 15.556546,4.38885794 C17.6749304,4.38885794 19.3805014,6.10529248 19.3805014,8.21281337 C19.3805014,10.7657382 17.5771588,12.6777159 14.9155989,12.6777159 L14.8069638,12.6777159 L14.8069638,12.6668524 L14.7961003,12.6668524 L14.7961003,12.6668524 Z M12.764624,7.99554318 C12.764624,9.79888579 13.405571,12.1345404 15.6325905,12.1345404 C17.218663,12.1345404 17.85961,10.548468 17.85961,9.04930362 C17.85961,6.82228412 16.7841226,5.0189415 15.1980501,5.0189415 C13.2969359,4.91030641 12.764624,6.38774373 12.764624,7.99554318 Z" id="Shape"></path>
                    <path d="M20.6189415,6.81142061 C20.6189415,6.27910864 20.6189415,5.85543175 20.5103064,5.73593315 C20.4016713,5.62729805 20.1952646,5.52952646 19.8693593,5.52952646 L19.2284123,5.52952646 L19.2284123,5.09498607 C20.1844011,4.98635097 21.2490251,4.66044568 21.8899721,4.3454039 L21.9986072,4.454039 L21.9986072,6.17047354 L21.9986072,6.17047354 L22.9545961,5.09498607 C23.3891365,4.56267409 23.8997214,4.3454039 24.3342618,4.3454039 C24.6493036,4.3454039 24.9752089,4.454039 25.083844,4.55181058 L24.9752089,6.5724234 L24.6601671,6.5724234 C24.4537604,6.13788301 24.1278552,5.82284123 23.4869081,5.82284123 C22.7373259,5.82284123 22.0094708,6.5724234 22.0094708,7.73481894 L22.0094708,10.6896936 C22.0094708,11.124234 22.0094708,11.5370474 22.1181058,11.6456825 C22.2267409,11.7543175 22.4331476,11.8520891 22.867688,11.8520891 L23.7150418,11.8520891 L23.7150418,12.3844011 C22.867688,12.3844011 22.1289694,12.3844011 21.2707521,12.3844011 C20.4233983,12.3844011 19.7933148,12.3844011 19.1523677,12.3844011 L19.1523677,11.8520891 L19.9019499,11.8520891 C20.2169916,11.8520891 20.3364903,11.743454 20.4342618,11.6456825 C20.5428969,11.4392758 20.5428969,11.1133705 20.5428969,10.6896936 L20.5428969,6.76796657 L20.608078,6.76796657 L20.608078,6.78969359 L20.6189415,6.78969359 L20.6189415,6.81142061 Z" id="Path"></path>
                    <path d="M28.4841226,10.6462396 C28.4841226,11.0807799 28.4841226,11.4935933 28.5927577,11.6022284 C28.7013928,11.7108635 28.7991643,11.8086351 29.1250696,11.8086351 L29.8746518,11.8086351 L29.8746518,12.3409471 C29.2337047,12.3409471 28.5927577,12.3409471 27.7562674,12.3409471 C26.9197772,12.3409471 26.2788301,12.3409471 25.637883,12.3409471 L25.637883,11.8086351 L26.3874652,11.8086351 C26.702507,11.8086351 26.8220056,11.7 26.9197772,11.6022284 C27.0284123,11.3958217 27.0284123,11.0699164 27.0284123,10.6462396 L27.0284123,6.81142061 C27.0284123,6.27910864 27.0284123,5.85543175 26.9197772,5.73593315 C26.8111421,5.61643454 26.6047354,5.52952646 26.2788301,5.52952646 L25.7465181,5.52952646 L25.7465181,5.09498607 C26.702507,4.98635097 27.7671309,4.66044568 28.408078,4.3454039 L28.5167131,4.454039 L28.5167131,5.93147632 L28.5167131,5.93147632 L29.7986072,4.85598886 C30.2331476,4.54094708 30.5481894,4.42144847 31.1891365,4.42144847 C33.2097493,4.42144847 33.948468,5.49693593 33.948468,7.37632312 L33.948468,10.6571031 C33.948468,11.0916435 33.948468,11.5044568 34.0571031,11.6130919 C34.1657382,11.721727 34.2635097,11.8194986 34.589415,11.8194986 L35.3389972,11.8194986 L35.3389972,12.3518106 C34.9044568,12.3518106 34.3830084,12.3518106 33.948468,12.3518106 C33.5139276,12.3518106 32.9924791,12.3518106 32.5579387,12.3518106 L32.5579387,7.5718663 C32.5579387,6.18133705 31.710585,5.45348189 30.645961,5.45348189 C29.5704735,5.45348189 28.5275766,6.30083565 28.5275766,7.03955432 L28.4841226,10.6462396 L28.4841226,10.6462396 Z" id="Path"></path>
                    <path d="M42.389415,7.45236769 C42.389415,7.65877437 42.389415,7.88690808 42.389415,8.20194986 C41.3139276,8.40835655 40.3688022,8.40835655 39.3041783,8.40835655 L36.8598886,8.40835655 C36.8598886,10.4289694 37.8158774,11.7977716 39.9451253,11.7977716 C40.7924791,11.7977716 41.4225627,11.3632312 42.0635097,10.9504178 L42.2699164,11.1568245 L41.9548747,11.6891365 C41.8462396,11.8955432 40.3688022,12.6451253 39.1955432,12.6451253 C36.6426184,12.6451253 35.2738162,11.0590529 35.2738162,8.72339833 C35.2738162,7.0178273 35.7083565,6.06183844 36.5557103,5.44261838 C36.8707521,5.2362117 37.1966574,4.91030641 37.6311978,4.80167131 C38.2721448,4.48662953 38.7066852,4.36713092 39.3476323,4.36713092 C41.0097493,4.36713092 42.389415,5.55125348 42.389415,7.45236769 Z M36.8707521,7.56100279 L36.8707521,7.76740947 C37.6203343,7.87604457 38.3481894,7.87604457 38.9891365,7.87604457 C39.6300836,7.87604457 40.2710306,7.87604457 40.9011142,7.87604457 C40.9011142,6.28997214 40.3688022,5.00807799 39.0977716,5.00807799 C37.8267409,4.91030641 36.8707521,5.87715877 36.8707521,7.56100279 Z" id="Shape"></path>
                    <path d="M43.9754875,1.82506964 C43.9754875,1.39052925 43.9754875,1.07548747 43.5409471,1.07548747 L42.5849582,1.07548747 L42.5849582,0.651810585 C43.432312,0.543175487 44.3883008,0.336768802 45.2465181,0.0108635097 L45.3551532,0.119498607 L45.3551532,10.635376 C45.3551532,11.0699164 45.3551532,11.4827298 45.4637883,11.5913649 C45.5724234,11.7 45.670195,11.7977716 45.9961003,11.7977716 L46.7456825,11.7977716 L46.7456825,12.3300836 C46.1047354,12.3300836 45.4637883,12.3300836 44.6272981,12.3300836 C43.7908078,12.3300836 43.1498607,12.3300836 42.5089136,12.3300836 L42.5089136,11.7977716 L43.2584958,11.7977716 C43.5735376,11.7977716 43.6930362,11.6891365 43.7908078,11.5913649 C43.8994429,11.3849582 43.8994429,11.0590529 43.8994429,10.635376 L43.8994429,1.82506964 L43.9754875,1.82506964 L43.9754875,1.82506964 Z" id="Path"></path>
                    <path d="M48.2448468,1.82506964 C48.2448468,1.39052925 48.2448468,1.07548747 47.8103064,1.07548747 L46.8543175,1.07548747 L46.8543175,0.651810585 C47.7016713,0.543175487 48.6576602,0.336768802 49.5158774,0.0108635097 L49.6245125,0.119498607 L49.6245125,10.635376 C49.6245125,11.0699164 49.6245125,11.4827298 49.7331476,11.5913649 C49.8417827,11.7 49.9395543,11.7977716 50.2654596,11.7977716 L51.0150418,11.7977716 L51.0150418,12.3300836 C50.3740947,12.3300836 49.7331476,12.3300836 48.8966574,12.3300836 C48.0493036,12.3300836 47.4192201,12.3300836 46.778273,12.3300836 L46.778273,11.7977716 L47.5278552,11.7977716 C47.8428969,11.7977716 47.9623955,11.6891365 48.0601671,11.5913649 C48.1688022,11.3849582 48.1688022,11.0590529 48.1688022,10.635376 L48.1688022,1.82506964 L48.2448468,1.82506964 L48.2448468,1.82506964 Z" id="Path"></path>
                    <path d="M56.1969359,2.68328691 C56.1969359,2.04233983 56.1969359,1.60779944 56.0883008,1.40139276 C55.9796657,1.19498607 55.7732591,1.19498607 55.3387187,1.19498607 L54.4913649,1.19498607 L54.4913649,0.651810585 C55.3387187,0.651810585 56.2077994,0.651810585 57.0442897,0.651810585 C57.7938719,0.651810585 58.6303621,0.651810585 59.4885794,0.651810585 L59.4885794,1.18412256 L58.6412256,1.18412256 C58.2066852,1.18412256 58.0002786,1.29275766 57.8916435,1.39052925 C57.7830084,1.59693593 57.7830084,2.03147632 57.7830084,2.6724234 L57.7830084,8.51699164 C57.7830084,10.9612813 59.0649025,11.6022284 61.2810585,11.6022284 C63.0844011,11.6022284 64.7791086,10.8526462 64.7791086,8.10417827 L64.7791086,2.68328691 C64.7791086,2.04233983 64.7791086,1.60779944 64.6704735,1.40139276 C64.5618384,1.19498607 64.3554318,1.19498607 63.9208914,1.19498607 L63.1713092,1.19498607 L63.1713092,0.673537604 C63.8122563,0.673537604 64.5618384,0.673537604 65.191922,0.673537604 C65.8220056,0.673537604 66.4738162,0.673537604 67.2125348,0.673537604 L67.2125348,1.20584958 L66.4738162,1.20584958 C66.0392758,1.20584958 65.8328691,1.31448468 65.724234,1.41225627 C65.6155989,1.61866295 65.6155989,2.05320334 65.6155989,2.69415042 L65.6155989,7.5718663 C65.6155989,11.167688 64.2250696,12.6777159 60.8356546,12.6777159 C57.967688,12.6777159 56.2729805,11.8303621 56.2729805,8.75598886 L56.2729805,2.69415042 L56.1969359,2.68328691 L56.1969359,2.68328691 Z" id="Path"></path>
                    <path d="M69.4612813,10.6462396 C69.4612813,11.0807799 69.4612813,11.4935933 69.5699164,11.6022284 C69.6785515,11.7108635 69.7763231,11.8086351 70.1022284,11.8086351 L70.8518106,11.8086351 L70.8518106,12.3409471 C70.2108635,12.3409471 69.5699164,12.3409471 68.7334262,12.3409471 C67.8969359,12.3409471 67.2559889,12.3409471 66.6150418,12.3409471 L66.6150418,11.8086351 L67.364624,11.8086351 C67.6796657,11.8086351 67.7991643,11.7 67.8969359,11.6022284 C68.005571,11.3958217 68.005571,11.0699164 68.005571,10.6462396 L68.005571,6.81142061 C68.005571,6.27910864 68.005571,5.85543175 67.8969359,5.73593315 C67.7883008,5.61643454 67.5818942,5.52952646 67.2559889,5.52952646 L66.6150418,5.52952646 L66.6150418,5.09498607 C67.5710306,4.98635097 68.6356546,4.66044568 69.2766017,4.3454039 L69.3852368,4.454039 L69.3852368,5.93147632 L69.3852368,5.93147632 L70.6671309,4.85598886 C71.1016713,4.54094708 71.4167131,4.42144847 72.0576602,4.42144847 C74.078273,4.42144847 74.8169916,5.49693593 74.8169916,7.37632312 L74.8169916,10.6571031 C74.8169916,11.0916435 74.8169916,11.5044568 74.9256267,11.6130919 C75.0342618,11.721727 75.1320334,11.8194986 75.4579387,11.8194986 L76.2075209,11.8194986 L76.2075209,12.3518106 C75.7729805,12.3518106 75.251532,12.3518106 74.8169916,12.3518106 C74.3824513,12.3518106 73.8610028,12.3518106 73.4264624,12.3518106 L73.4264624,7.5718663 C73.4264624,6.18133705 72.5791086,5.45348189 71.5144847,5.45348189 C70.4389972,5.45348189 69.3961003,6.30083565 69.3961003,7.03955432 L69.3961003,10.5810585 L69.4830084,10.5810585 L69.4612813,10.6462396 L69.4612813,10.6462396 Z" id="Path"></path>
                    <path d="M79.662117,10.6462396 C79.662117,11.0807799 79.662117,11.4935933 79.7707521,11.6022284 C79.8793872,11.7108635 79.9771588,11.8086351 80.3030641,11.8086351 L81.0526462,11.8086351 L81.0526462,12.3409471 C80.4116992,12.3409471 79.7707521,12.3409471 78.9342618,12.3409471 C78.0977716,12.3409471 77.4568245,12.3409471 76.8158774,12.3409471 L76.8158774,11.8086351 L77.5654596,11.8086351 C77.8805014,11.8086351 78,11.7 78.0977716,11.6022284 C78.2064067,11.3958217 78.2064067,11.0699164 78.2064067,10.6462396 L78.2064067,6.81142061 C78.2064067,6.27910864 78.2064067,5.85543175 78.0977716,5.73593315 C77.9891365,5.61643454 77.7827298,5.52952646 77.4568245,5.52952646 L76.8158774,5.52952646 L76.8158774,5.09498607 C77.7718663,4.98635097 78.8364903,4.66044568 79.4774373,4.3454039 L79.5860724,4.454039 L79.5860724,10.6245125 L79.6729805,10.6245125 L79.6729805,10.6462396 L79.662117,10.6462396 L79.662117,10.6462396 Z M79.7707521,1.60779944 C79.7707521,2.14011142 79.3362117,2.5637883 78.8147632,2.5637883 C78.2824513,2.5637883 77.8587744,2.12924791 77.8587744,1.60779944 C77.8587744,1.08635097 78.2933148,0.651810585 78.8147632,0.651810585 C79.3362117,0.651810585 79.7707521,1.08635097 79.7707521,1.60779944 Z" id="Shape"></path>
                    <path d="M86.0281337,10.6462396 C85.7130919,11.2871866 85.5935933,11.9281337 85.2785515,12.4495822 L84.4311978,12.4495822 L81.4437326,5.55125348 C81.3350975,5.3448468 81.2373259,5.0189415 80.9114206,5.0189415 L80.3791086,5.0189415 L80.3791086,4.58440111 C81.0200557,4.58440111 81.6610028,4.58440111 82.3997214,4.58440111 C83.0406685,4.58440111 83.6816156,4.58440111 84.4203343,4.58440111 L84.4203343,5.0189415 L83.5729805,5.0189415 C83.2579387,5.0189415 83.1384401,5.1275766 83.1384401,5.33398329 C83.1384401,5.44261838 83.1384401,5.64902507 83.2470752,5.97493036 L85.267688,10.8526462 C85.5827298,10.1030641 86.0172702,9.26657382 86.3431755,8.50612813 L87.0927577,6.70278552 C87.2991643,6.17047354 87.4077994,5.74679666 87.4077994,5.42089136 C87.4077994,5.10584958 87.2991643,4.98635097 86.9732591,4.98635097 L86.2236769,4.98635097 L86.2236769,4.55181058 C86.7559889,4.55181058 87.2991643,4.55181058 87.8097493,4.55181058 C88.3203343,4.55181058 88.8852368,4.55181058 89.3958217,4.55181058 L89.3958217,4.98635097 L88.8635097,4.98635097 C88.4289694,4.98635097 88.1139276,5.62729805 87.9075209,6.15961003 L86.0281337,10.6462396 Z" id="Path"></path>
                    <path d="M96.2181058,7.45236769 C96.2181058,7.65877437 96.2181058,7.88690808 96.2181058,8.20194986 C95.1426184,8.40835655 94.197493,8.40835655 93.1328691,8.40835655 L90.6885794,8.40835655 C90.6885794,10.4289694 91.6445682,11.7977716 93.7738162,11.7977716 C94.6103064,11.7977716 95.2512535,11.3632312 95.8922006,10.9504178 L96.0986072,11.1568245 L95.7835655,11.6891365 C95.6749304,11.8955432 94.197493,12.6451253 93.024234,12.6451253 C90.4713092,12.6451253 89.102507,11.0590529 89.102507,8.72339833 C89.102507,7.0178273 89.5370474,6.06183844 90.3844011,5.44261838 C90.6994429,5.2362117 91.0253482,4.91030641 91.4598886,4.80167131 C92.1008357,4.48662953 92.535376,4.36713092 93.1763231,4.36713092 C94.8493036,4.36713092 96.2181058,5.55125348 96.2181058,7.45236769 Z M90.5908078,7.56100279 L90.5908078,7.76740947 C91.34039,7.87604457 92.0682451,7.87604457 92.7091922,7.87604457 C93.3501393,7.87604457 93.9910864,7.87604457 94.6211699,7.87604457 C94.6211699,6.28997214 94.0888579,5.00807799 92.8178273,5.00807799 C91.6662953,4.91030641 90.5908078,5.87715877 90.5908078,7.56100279 Z" id="Shape"></path>
                    <path d="M98.1300836,6.81142061 C98.1300836,6.27910864 98.1300836,5.85543175 98.0214485,5.73593315 C97.9128134,5.62729805 97.7064067,5.52952646 97.3805014,5.52952646 L96.7395543,5.52952646 L96.7395543,5.09498607 C97.6955432,4.98635097 98.7601671,4.66044568 99.4011142,4.3454039 L99.5097493,4.454039 L99.5097493,6.17047354 L99.5097493,6.17047354 L100.465738,5.09498607 C100.900279,4.56267409 101.421727,4.3454039 101.856267,4.3454039 C102.171309,4.3454039 102.497214,4.454039 102.60585,4.55181058 L102.497214,6.5724234 L102.182173,6.5724234 C101.975766,6.13788301 101.649861,5.82284123 101.008914,5.82284123 C100.259331,5.82284123 99.5314763,6.5724234 99.5314763,7.73481894 L99.5314763,10.6896936 C99.5314763,11.124234 99.5314763,11.5370474 99.6401114,11.6456825 C99.7487465,11.7543175 99.9551532,11.8520891 100.389694,11.8520891 L101.237047,11.8520891 L101.237047,12.3844011 C100.389694,12.3844011 99.6509749,12.3844011 98.7927577,12.3844011 C97.9345404,12.3844011 97.3153203,12.3844011 96.6743733,12.3844011 L96.6743733,11.8520891 L97.4239554,11.8520891 C97.7389972,11.8520891 97.8584958,11.743454 97.9562674,11.6456825 C98.0649025,11.4392758 98.0649025,11.1133705 98.0649025,10.6896936 L98.0649025,6.76796657 L98.1300836,6.76796657 L98.1300836,6.81142061 L98.1300836,6.81142061 Z" id="Path"></path>
                    <path d="M103.974652,9.90752089 L103.974652,10.6571031 C103.974652,11.7325905 105.147911,12.1345404 106.201671,12.1345404 C107.277159,12.1345404 108.222284,11.4935933 108.222284,10.548468 C108.222284,10.016156 107.907242,9.59247911 107.385794,9.38607242 C106.636212,9.17966574 105.669359,8.95153203 104.832869,8.74512535 C103.996379,8.43008357 103.355432,7.89777159 103.355432,6.94178273 C103.355432,5.13844011 104.941504,4.49749304 106.549304,4.49749304 C107.385794,4.49749304 108.026741,4.70389972 108.776323,4.93203343 C108.776323,5.5729805 108.667688,6.21392758 108.667688,6.84401114 L108.233148,6.84401114 L108.233148,6.40947075 C108.233148,5.56211699 107.277159,5.0189415 106.212535,5.0189415 C104.735097,5.0189415 104.4961,5.86629526 104.4961,6.40947075 C104.4961,7.15905292 105.028412,7.58272981 106.299443,7.8 C108.320056,8.11504178 109.254318,8.64735376 109.254318,9.9183844 C109.254318,11.8303621 107.34234,12.786351 105.538997,12.786351 C104.691643,12.786351 103.952925,12.6777159 103.192479,12.3518106 C103.398886,11.6022284 103.398886,10.7657382 103.398886,10.0052925 L103.931198,10.0052925 L103.931198,9.89665738 L103.985515,9.89665738 L103.974652,9.90752089 L103.974652,9.90752089 Z" id="Path"></path>
                    <path d="M112.784958,10.6462396 C112.784958,11.0807799 112.784958,11.4935933 112.893593,11.6022284 C113.002228,11.7108635 113.1,11.8086351 113.425905,11.8086351 L114.175487,11.8086351 L114.175487,12.3409471 C113.53454,12.3409471 112.893593,12.3409471 112.057103,12.3409471 C111.220613,12.3409471 110.579666,12.3409471 109.938719,12.3409471 L109.938719,11.8086351 L110.688301,11.8086351 C111.003343,11.8086351 111.122841,11.7 111.220613,11.6022284 C111.329248,11.3958217 111.329248,11.0699164 111.329248,10.6462396 L111.329248,6.81142061 C111.329248,6.27910864 111.329248,5.85543175 111.220613,5.73593315 C111.111978,5.61643454 110.905571,5.52952646 110.579666,5.52952646 L109.938719,5.52952646 L109.938719,5.09498607 C110.894708,4.98635097 111.959331,4.66044568 112.600279,4.3454039 L112.708914,4.454039 L112.708914,10.6245125 L112.795822,10.6245125 L112.784958,10.6462396 L112.784958,10.6462396 Z M113.002228,1.60779944 C113.002228,2.14011142 112.567688,2.5637883 112.04624,2.5637883 C111.513928,2.5637883 111.090251,2.12924791 111.090251,1.60779944 C111.090251,1.08635097 111.524791,0.651810585 112.04624,0.651810585 C112.469916,0.662674095 113.002228,1.08635097 113.002228,1.60779944 Z" id="Shape"></path>
                    <path d="M113.947354,5.97493036 L113.947354,5.65988858 L115.229248,5.0189415 L115.229248,3.85654596 C115.229248,3.42200557 115.229248,3.0091922 115.120613,2.46601671 C115.76156,2.25961003 116.293872,2.03147632 116.59805,1.82506964 L116.804457,2.03147632 C116.695822,2.7810585 116.59805,3.74791086 116.59805,4.47576602 L116.59805,5.11671309 L118.944568,5.00807799 L118.835933,5.96406685 L116.717549,5.96406685 L116.717549,10.4289694 C116.717549,11.1785515 116.923955,11.6022284 117.673538,11.6022284 C118.108078,11.6022284 118.42312,11.3958217 118.629526,11.2871866 L118.835933,11.6022284 L117.988579,12.4495822 C117.879944,12.6559889 117.238997,12.6559889 116.913092,12.6559889 C116.076602,12.6559889 115.196657,12.2214485 115.196657,10.8526462 L115.196657,5.95320334 L113.947354,5.97493036 Z" id="Path"></path>
                    <path d="M125.842897,5.97493036 C125.951532,5.76852368 125.951532,5.65988858 125.951532,5.54038997 C125.951532,5.22534819 125.745125,5.10584958 125.20195,5.10584958 L124.767409,5.10584958 L124.767409,4.67130919 C125.299721,4.67130919 125.842897,4.67130919 126.353482,4.67130919 C126.885794,4.67130919 127.428969,4.67130919 127.939554,4.67130919 L127.939554,5.10584958 L127.505014,5.10584958 C127.070474,5.10584958 126.755432,5.63816156 126.114485,7.1264624 L122.72507,15.1002786 C122.192758,16.3821727 121.562674,17.218663 120.172145,17.218663 C119.857103,17.218663 119.531198,17.1100279 119.324791,17.0122563 L119.759331,15.7303621 L119.965738,15.7303621 C120.172145,15.9367688 120.606685,16.1649025 120.802228,16.1649025 L120.802228,16.1649025 C121.758217,16.0562674 122.279666,14.6874652 122.605571,13.937883 L123.040111,12.8623955 L120.28078,5.96406685 C119.965738,5.32311978 119.748468,5.11671309 119.433426,5.11671309 L119.118384,5.11671309 L119.118384,4.6821727 C119.759331,4.6821727 120.400279,4.6821727 121.138997,4.6821727 C121.779944,4.6821727 122.420891,4.6821727 123.15961,4.6821727 L123.15961,5.11671309 L122.518663,5.11671309 C122.203621,5.11671309 121.986351,5.22534819 121.986351,5.55125348 C121.986351,5.75766017 121.986351,5.98579387 122.094986,6.19220056 L124.006964,10.8635097 L125.842897,5.97493036 Z" id="Path"></path>
                </g>
            </g>
        </g>
    </g>
</svg>