<?xml version="1.0" encoding="UTF-8"?>
<svg width="188px" height="42px" viewBox="0 0 188 42" version="1.1" xmlns="http://www.w3.org/2000/svg" xmlns:xlink="http://www.w3.org/1999/xlink">
    <!-- Generator: Sketch 63.1 (92452) - https://sketch.com -->
    <title>cornell-reduced-red</title>
    <desc>Created with Sketch.</desc>
    <g id="Page-1" stroke="none" stroke-width="1" fill="none" fill-rule="evenodd">
        <g id="cornell-reduced-red" fill="#B31B1B" fill-rule="nonzero">
            <g id="Layer_1_1_">
                <path d="M20.929805,41.9649025 C9.37103064,41.9649025 0,32.4768802 0,20.929805 C0,9.38272981 9.37103064,0 20.929805,0 C32.4885794,0 41.85961,9.37103064 41.85961,20.929805 C41.85961,32.4651811 32.4651811,41.9649025 20.929805,41.9649025 Z M20.929805,2.29303621 C10.6462396,2.29303621 2.28133705,10.6462396 2.28133705,20.9415042 C2.28133705,31.2367688 10.6345404,39.5899721 20.929805,39.5899721 C31.2250696,39.5899721 39.578273,31.2367688 39.578273,20.9415042 C39.5665738,10.6228412 31.2133705,2.29303621 20.929805,2.29303621 Z" id="Shape"></path>
                <path d="M20.929805,39.4495822 L20.5905292,39.3325905 C20.1225627,39.1103064 8.24791086,33.9626741 8.24791086,24.4629526 L8.24791086,7.55766017 L33.6350975,7.55766017 L33.6350975,24.7086351 C33.6350975,33.74039 21.8657382,39.0167131 21.2924791,39.2272981 L20.929805,39.4495822 Z M10.0729805,9.26573816 L10.0729805,24.4746518 C10.0729805,32.0206128 19.1047354,36.7119777 21.0467967,37.6245125 C22.8952646,36.7119777 32.0206128,31.9036212 32.0206128,24.8139276 L32.0206128,9.37103064 L10.0612813,9.37103064 C10.0729805,9.37103064 10.0729805,9.26573816 10.0729805,9.26573816 Z" id="Shape"></path>
                <path d="M15.5715877,17.5019499 L15.3493036,17.3849582 C15.3493036,17.3849582 13.9688022,16.5777159 13.1732591,16.0044568 C12.4830084,15.5364903 12.1437326,14.9749304 12.0150418,14.5069638 C12.0150418,14.3899721 12.0150418,13.0094708 12.0150418,10.2835655 L12.0150418,9.71030641 L19.221727,9.71030641 L19.221727,10.2835655 C19.221727,13.0328691 19.221727,14.4016713 19.221727,14.5069638 C19.221727,15.0802228 18.8824513,15.5364903 18.1922006,16.0044568 C17.2796657,16.5777159 16.016156,17.3849582 15.9108635,17.3849582 L15.5715877,17.5019499 Z M13.0328691,10.7398329 C13.0328691,12.2373259 13.0328691,14.1793872 13.0328691,14.3899721 C13.0328691,14.5069638 13.2551532,14.8579387 13.6061281,15.0802228 C14.1793872,15.4194986 14.9866295,15.9927577 15.4545961,16.2384401 C15.9225627,16.016156 16.8350975,15.4311978 17.3966574,15.0802228 C17.6189415,14.9632312 17.9699164,14.7409471 17.9699164,14.5069638 C17.9699164,14.2846797 17.9699164,12.4479109 17.9699164,10.8568245 L13.0445682,10.8568245 L13.0445682,10.7398329 L13.0328691,10.7398329 Z" id="Shape"></path>
                <path d="M26.7559889,17.5019499 L26.5337047,17.3849582 C26.5337047,17.3849582 25.1532033,16.5777159 24.3576602,16.0044568 C23.6674095,15.5364903 23.3281337,14.9749304 23.1994429,14.5069638 C23.1994429,14.3899721 23.1994429,13.0094708 23.1994429,10.2835655 L23.1994429,9.71030641 L30.4061281,9.71030641 L30.4061281,10.2835655 C30.4061281,13.0328691 30.4061281,14.4016713 30.4061281,14.5069638 C30.4061281,15.0802228 30.0668524,15.5364903 29.3766017,16.0044568 C28.4640669,16.5777159 27.2005571,17.3849582 27.0952646,17.3849582 L26.7559889,17.5019499 Z M24.2523677,10.7398329 C24.2523677,12.2373259 24.2523677,14.1793872 24.2523677,14.3899721 C24.2523677,14.5069638 24.4746518,14.8579387 24.8256267,15.0802228 C25.3988858,15.4194986 26.194429,15.9927577 26.6740947,16.2384401 C27.1420613,16.016156 28.0428969,15.4311978 28.616156,15.0802228 C28.8384401,14.9632312 29.189415,14.7409471 29.189415,14.5069638 C29.189415,14.2846797 29.189415,12.4479109 29.189415,10.8568245 L24.275766,10.8568245 L24.275766,10.7398329 L24.2523677,10.7398329 Z" id="Shape"></path>
                <rect id="Rectangle" x="8.69247911" y="17.8412256" width="24.6969359" height="1.49749304"></rect>
                <path d="M20.929805,32.816156 C20.4618384,32.816156 20.2395543,32.4768802 20.1225627,32.3481894 C20.005571,32.2311978 19.9002786,32.1259053 19.7832869,32.1259053 C19.0930362,32.1259053 18.6250696,32.1259053 18.0752089,32.2428969 C17.5019499,32.2428969 16.9169916,32.3598886 16.016156,32.3598886 C15.1153203,32.3598886 14.4250696,32.3598886 14.4250696,32.3598886 L13.7348189,32.3598886 L13.7348189,20.8011142 L14.4250696,20.8011142 C14.8930362,20.8011142 15.4545961,20.8011142 16.3671309,20.8011142 C16.8350975,20.8011142 17.2796657,20.6841226 17.864624,20.6841226 C18.2038997,20.6841226 18.5548747,20.5671309 18.8941504,20.5671309 C19.7013928,20.4501393 20.3916435,20.6841226 20.4852368,20.6841226 C20.7075209,20.6841226 20.8245125,20.8011142 21.0584958,20.9064067 C21.1754875,20.789415 21.3977716,20.789415 21.6317549,20.6841226 C21.6317549,20.6841226 22.4389972,20.5671309 23.2228412,20.5671309 C23.562117,20.5671309 23.9130919,20.6841226 24.2523677,20.6841226 C24.8256267,20.8011142 25.2818942,20.8011142 25.7498607,20.8011142 C26.6506964,20.8011142 27.2356546,20.8011142 27.691922,20.8011142 L28.3821727,20.8011142 L28.3821727,32.3598886 L27.7036212,32.3598886 C27.7036212,32.3598886 27.0133705,32.3598886 26.1125348,32.3598886 C25.2,32.3598886 24.6150418,32.2428969 24.0534819,32.2428969 C23.4802228,32.2428969 23.0239554,32.1259053 22.3454039,32.1259053 C22.1231198,32.1259053 22.1231198,32.1259053 22.0061281,32.3481894 C21.6200557,32.5938719 21.3860724,32.816156 20.929805,32.816156 Z M19.7832869,30.8623955 C20.356546,30.8623955 20.8128134,31.0846797 21.0467967,31.3303621 C21.2690808,31.108078 21.7370474,30.8623955 22.3103064,30.8623955 C23.0005571,30.8623955 23.5738162,30.8623955 24.1587744,30.9793872 C24.7320334,30.9793872 25.3169916,31.0963788 26.1008357,31.0963788 C26.4401114,31.0963788 26.6740947,31.0963788 26.908078,31.0963788 L26.908078,22.1933148 C26.5688022,22.1933148 26.1008357,22.1933148 25.6445682,22.1933148 C25.1883008,22.1933148 24.6150418,22.0763231 24.0534819,22.0763231 C23.7142061,22.0763231 23.3632312,21.9593315 23.0239554,21.9593315 C22.4506964,21.8423398 21.8657382,21.9593315 21.8657382,21.9593315 C21.7487465,21.9593315 21.643454,22.0763231 21.643454,22.0763231 C21.643454,22.0763231 21.643454,22.0763231 21.7604457,21.9593315 L21.070195,21.8423398 L20.3799443,21.9593315 C20.3799443,22.0763231 20.3799443,22.0763231 20.4969359,22.0763231 C20.4969359,22.0763231 20.4969359,22.0763231 20.2746518,21.9593315 L20.2746518,21.9593315 C20.2746518,21.9593315 19.7013928,21.8423398 19.1164345,21.9593315 C18.7771588,21.9593315 18.4261838,22.0763231 18.0869081,22.0763231 C17.513649,22.1933148 16.9286908,22.1933148 16.4958217,22.1933148 C15.9225627,22.1933148 15.5832869,22.1933148 15.232312,22.1933148 L15.232312,31.0963788 C15.4545961,31.0963788 15.805571,31.0963788 16.0395543,31.0963788 C16.8467967,31.0963788 17.4200557,30.9793872 17.9816156,30.9793872 C18.5314763,30.8623955 18.9877437,30.8623955 19.7832869,30.8623955 Z" id="Shape"></path>
                <rect id="Rectangle" x="12.4713092" y="11.8980501" width="5.93147632" height="1.02952646"></rect>
                <rect id="Rectangle" x="20.3448468" y="18.1922006" width="1.36880223" height="20.3448468"></rect>
                <polygon id="Path" points="29.2830084 14.1793872 26.6506964 12.4713092 24.2523677 14.1793872 23.562117 13.3721448 26.6506964 11.2077994 29.8445682 13.3721448"></polygon>
                <rect id="Rectangle" x="16.0044568" y="23.4334262" width="2.97158774" height="1.02952646"></rect>
                <rect id="Rectangle" x="16.0044568" y="25.8317549" width="2.97158774" height="1.02952646"></rect>
                <rect id="Rectangle" x="16.0044568" y="28.2534819" width="2.97158774" height="1.02952646"></rect>
                <rect id="Rectangle" x="22.637883" y="23.4334262" width="2.97158774" height="1.02952646"></rect>
                <rect id="Rectangle" x="22.637883" y="25.8317549" width="2.97158774" height="1.02952646"></rect>
                <rect id="Rectangle" x="22.637883" y="28.2534819" width="2.97158774" height="1.02952646"></rect>
            </g>
            <g id="Layer_3" transform="translate(49.370474, 14.038997)">
                <g id="Group">
                    <path d="M11.3364903,12.7169916 C10.3069638,13.4072423 8.47019499,13.7465181 7.33537604,13.7465181 C2.99498607,13.7465181 0.0233983287,11.2194986 0.0233983287,7.12479109 C0.0233983287,5.06573816 0.830640669,3.35766017 2.30473538,2.21114206 C3.68523677,1.05292479 5.48690808,0.503064067 7.55766017,0.503064067 C9.26573816,0.503064067 10.8802228,0.971030641 11.7810585,1.31030641 C11.5587744,2.22284123 11.4417827,3.14707521 11.4417827,4.05961003 L10.8685237,4.05961003 L10.8685237,2.66740947 C10.8685237,2.1994429 10.178273,1.86016713 9.27743733,1.5091922 C8.70417827,1.28690808 7.89693593,1.16991643 7.2183844,1.16991643 C3.77883008,1.16991643 1.96545961,3.69693593 1.96545961,6.77381616 C1.96545961,10.4239554 4.3637883,12.7169916 8.01392758,12.7169916 C9.39442897,12.7169916 10.8802228,12.2490251 11.675766,11.5587744 L11.7927577,11.7810585 L11.3364903,12.7169916 Z" id="Path"></path>
                    <path d="M15.9342618,13.6412256 C13.6529248,13.6412256 12.0618384,11.7927577 12.0618384,9.4178273 C12.0618384,6.66852368 13.7699164,4.7264624 16.7532033,4.7264624 C19.0345404,4.7264624 20.8713092,6.57493036 20.8713092,8.84456825 C20.8713092,11.5938719 18.9292479,13.6529248 16.0629526,13.6529248 L15.945961,13.6529248 L15.945961,13.6412256 L15.9342618,13.6412256 L15.9342618,13.6412256 Z M13.7465181,8.61058496 C13.7465181,10.5526462 14.4367688,13.0679666 16.8350975,13.0679666 C18.5431755,13.0679666 19.2334262,11.3598886 19.2334262,9.7454039 C19.2334262,7.34707521 18.0752089,5.40501393 16.3671309,5.40501393 C14.3197772,5.28802228 13.7465181,6.87910864 13.7465181,8.61058496 Z" id="Shape"></path>
                    <path d="M22.2050139,7.33537604 C22.2050139,6.76211699 22.2050139,6.30584958 22.0880223,6.17715877 C21.9710306,6.06016713 21.7487465,5.95487465 21.3977716,5.95487465 L20.7075209,5.95487465 L20.7075209,5.48690808 C21.7370474,5.36991643 22.8835655,5.0189415 23.5738162,4.67966574 L23.6908078,4.79665738 L23.6908078,6.64512535 L23.6908078,6.64512535 L24.7203343,5.48690808 C25.1883008,4.91364903 25.7381616,4.67966574 26.2061281,4.67966574 C26.5454039,4.67966574 26.8963788,4.79665738 27.0133705,4.90194986 L26.8963788,7.07799443 L26.5571031,7.07799443 C26.3348189,6.61002786 25.983844,6.27075209 25.2935933,6.27075209 C24.486351,6.27075209 23.702507,7.07799443 23.702507,8.32980501 L23.702507,11.5119777 C23.702507,11.9799443 23.702507,12.4245125 23.8194986,12.5415042 C23.9364903,12.6584958 24.1587744,12.7637883 24.6267409,12.7637883 L25.5392758,12.7637883 L25.5392758,13.3370474 C24.6267409,13.3370474 23.8311978,13.3370474 22.9069638,13.3370474 C21.994429,13.3370474 21.3158774,13.3370474 20.6256267,13.3370474 L20.6256267,12.7637883 L21.4328691,12.7637883 C21.7721448,12.7637883 21.9008357,12.6467967 22.0061281,12.5415042 C22.1231198,12.3192201 22.1231198,11.9682451 22.1231198,11.5119777 L22.1231198,7.28857939 L22.1933148,7.28857939 L22.1933148,7.31197772 L22.2050139,7.31197772 L22.2050139,7.33537604 Z" id="Path"></path>
                    <path d="M30.6752089,11.4651811 C30.6752089,11.9331476 30.6752089,12.3777159 30.7922006,12.4947075 C30.9091922,12.6116992 31.0144847,12.7169916 31.3654596,12.7169916 L32.1727019,12.7169916 L32.1727019,13.2902507 C31.4824513,13.2902507 30.7922006,13.2902507 29.8913649,13.2902507 C28.9905292,13.2902507 28.3002786,13.2902507 27.6100279,13.2902507 L27.6100279,12.7169916 L28.4172702,12.7169916 C28.756546,12.7169916 28.8852368,12.6 28.9905292,12.4947075 C29.1075209,12.2724234 29.1075209,11.9214485 29.1075209,11.4651811 L29.1075209,7.33537604 C29.1075209,6.76211699 29.1075209,6.30584958 28.9905292,6.17715877 C28.8735376,6.04846797 28.6512535,5.95487465 28.3002786,5.95487465 L27.7270195,5.95487465 L27.7270195,5.48690808 C28.756546,5.36991643 29.9030641,5.0189415 30.5933148,4.67966574 L30.7103064,4.79665738 L30.7103064,6.38774373 L30.7103064,6.38774373 L32.0908078,5.22952646 C32.5587744,4.8902507 32.8980501,4.76155989 33.5883008,4.76155989 C35.7643454,4.76155989 36.5598886,5.91977716 36.5598886,7.94373259 L36.5598886,11.4768802 C36.5598886,11.9448468 36.5598886,12.389415 36.6768802,12.5064067 C36.7938719,12.6233983 36.8991643,12.7286908 37.2501393,12.7286908 L38.0573816,12.7286908 L38.0573816,13.3019499 C37.589415,13.3019499 37.0278552,13.3019499 36.5598886,13.3019499 C36.091922,13.3019499 35.5303621,13.3019499 35.0623955,13.3019499 L35.0623955,8.15431755 C35.0623955,6.65682451 34.1498607,5.8729805 33.0033426,5.8729805 C31.8451253,5.8729805 30.7220056,6.78551532 30.7220056,7.5810585 L30.6752089,11.4651811 L30.6752089,11.4651811 Z" id="Path"></path>
                    <path d="M45.6501393,8.02562674 C45.6501393,8.24791086 45.6501393,8.49359331 45.6501393,8.83286908 C44.491922,9.0551532 43.4740947,9.0551532 42.3275766,9.0551532 L39.6952646,9.0551532 C39.6952646,11.2311978 40.7247911,12.7052925 43.0178273,12.7052925 C43.9303621,12.7052925 44.6089136,12.2373259 45.2991643,11.7927577 L45.5214485,12.0150418 L45.1821727,12.5883008 C45.0651811,12.810585 43.4740947,13.6178273 42.210585,13.6178273 C39.4612813,13.6178273 37.9871866,11.9097493 37.9871866,9.39442897 C37.9871866,7.55766017 38.4551532,6.5281337 39.367688,5.86128134 C39.7069638,5.63899721 40.0579387,5.28802228 40.5259053,5.17103064 C41.216156,4.83175487 41.6841226,4.70306407 42.3743733,4.70306407 C44.1643454,4.70306407 45.6501393,5.97827298 45.6501393,8.02562674 Z M39.7069638,8.14261838 L39.7069638,8.36490251 C40.5142061,8.48189415 41.2980501,8.48189415 41.9883008,8.48189415 C42.6785515,8.48189415 43.3688022,8.48189415 44.0473538,8.48189415 C44.0473538,6.77381616 43.4740947,5.39331476 42.1052925,5.39331476 C40.7364903,5.28802228 39.7069638,6.32924791 39.7069638,8.14261838 Z" id="Shape"></path>
                    <path d="M47.3582173,1.96545961 C47.3582173,1.49749304 47.3582173,1.15821727 46.8902507,1.15821727 L45.8607242,1.15821727 L45.8607242,0.701949861 C46.7732591,0.584958217 47.8027855,0.362674095 48.7270195,0.0116991643 L48.8440111,0.128690808 L48.8440111,11.4534819 C48.8440111,11.9214485 48.8440111,12.3660167 48.9610028,12.4830084 C49.0779944,12.6 49.1832869,12.7052925 49.5342618,12.7052925 L50.3415042,12.7052925 L50.3415042,13.2785515 C49.6512535,13.2785515 48.9610028,13.2785515 48.0601671,13.2785515 C47.1593315,13.2785515 46.4690808,13.2785515 45.7788301,13.2785515 L45.7788301,12.7052925 L46.5860724,12.7052925 C46.9253482,12.7052925 47.054039,12.5883008 47.1593315,12.4830084 C47.2763231,12.2607242 47.2763231,11.9097493 47.2763231,11.4534819 L47.2763231,1.96545961 L47.3582173,1.96545961 L47.3582173,1.96545961 Z" id="Path"></path>
                    <path d="M51.9559889,1.96545961 C51.9559889,1.49749304 51.9559889,1.15821727 51.4880223,1.15821727 L50.4584958,1.15821727 L50.4584958,0.701949861 C51.3710306,0.584958217 52.4005571,0.362674095 53.3247911,0.0116991643 L53.4417827,0.128690808 L53.4417827,11.4534819 C53.4417827,11.9214485 53.4417827,12.3660167 53.5587744,12.4830084 C53.675766,12.6 53.7810585,12.7052925 54.1320334,12.7052925 L54.9392758,12.7052925 L54.9392758,13.2785515 C54.2490251,13.2785515 53.5587744,13.2785515 52.6579387,13.2785515 C51.7454039,13.2785515 51.0668524,13.2785515 50.3766017,13.2785515 L50.3766017,12.7052925 L51.183844,12.7052925 C51.5231198,12.7052925 51.6518106,12.5883008 51.7571031,12.4830084 C51.8740947,12.2607242 51.8740947,11.9097493 51.8740947,11.4534819 L51.8740947,1.96545961 L51.9559889,1.96545961 L51.9559889,1.96545961 Z" id="Path"></path>
                    <path d="M60.5197772,2.88969359 C60.5197772,2.1994429 60.5197772,1.73147632 60.4027855,1.5091922 C60.2857939,1.28690808 60.0635097,1.28690808 59.5955432,1.28690808 L58.6830084,1.28690808 L58.6830084,0.701949861 C59.5955432,0.701949861 60.5314763,0.701949861 61.432312,0.701949861 C62.2395543,0.701949861 63.14039,0.701949861 64.064624,0.701949861 L64.064624,1.27520891 L63.1520891,1.27520891 C62.6841226,1.27520891 62.4618384,1.39220056 62.3448468,1.49749304 C62.2278552,1.71977716 62.2278552,2.18774373 62.2278552,2.87799443 L62.2278552,9.17214485 C62.2278552,11.8044568 63.6083565,12.4947075 65.9949861,12.4947075 C67.9370474,12.4947075 69.762117,11.6874652 69.762117,8.7275766 L69.762117,2.88969359 C69.762117,2.1994429 69.762117,1.73147632 69.6451253,1.5091922 C69.5281337,1.28690808 69.3058496,1.28690808 68.837883,1.28690808 L68.0306407,1.28690808 L68.0306407,0.725348189 C68.7208914,0.725348189 69.5281337,0.725348189 70.2066852,0.725348189 C70.8852368,0.725348189 71.5871866,0.725348189 72.3827298,0.725348189 L72.3827298,1.29860724 L71.5871866,1.29860724 C71.1192201,1.29860724 70.8969359,1.41559889 70.7799443,1.52089136 C70.6629526,1.74317549 70.6629526,2.21114206 70.6629526,2.90139276 L70.6629526,8.15431755 C70.6629526,12.0267409 69.1654596,13.6529248 65.5153203,13.6529248 C62.4267409,13.6529248 60.6016713,12.74039 60.6016713,9.42952646 L60.6016713,2.90139276 L60.5197772,2.88969359 L60.5197772,2.88969359 Z" id="Path"></path>
                    <path d="M74.8044568,11.4651811 C74.8044568,11.9331476 74.8044568,12.3777159 74.9214485,12.4947075 C75.0384401,12.6116992 75.1437326,12.7169916 75.4947075,12.7169916 L76.3019499,12.7169916 L76.3019499,13.2902507 C75.6116992,13.2902507 74.9214485,13.2902507 74.0206128,13.2902507 C73.1197772,13.2902507 72.4295265,13.2902507 71.7392758,13.2902507 L71.7392758,12.7169916 L72.5465181,12.7169916 C72.8857939,12.7169916 73.0144847,12.6 73.1197772,12.4947075 C73.2367688,12.2724234 73.2367688,11.9214485 73.2367688,11.4651811 L73.2367688,7.33537604 C73.2367688,6.76211699 73.2367688,6.30584958 73.1197772,6.17715877 C73.0027855,6.04846797 72.7805014,5.95487465 72.4295265,5.95487465 L71.7392758,5.95487465 L71.7392758,5.48690808 C72.7688022,5.36991643 73.9153203,5.0189415 74.605571,4.67966574 L74.7225627,4.79665738 L74.7225627,6.38774373 L74.7225627,6.38774373 L76.1030641,5.22952646 C76.5710306,4.8902507 76.9103064,4.76155989 77.6005571,4.76155989 C79.7766017,4.76155989 80.5721448,5.91977716 80.5721448,7.94373259 L80.5721448,11.4768802 C80.5721448,11.9448468 80.5721448,12.389415 80.6891365,12.5064067 C80.8061281,12.6233983 80.9114206,12.7286908 81.2623955,12.7286908 L82.0696379,12.7286908 L82.0696379,13.3019499 C81.6016713,13.3019499 81.0401114,13.3019499 80.5721448,13.3019499 C80.1041783,13.3019499 79.5426184,13.3019499 79.0746518,13.3019499 L79.0746518,8.15431755 C79.0746518,6.65682451 78.162117,5.8729805 77.0155989,5.8729805 C75.8573816,5.8729805 74.7342618,6.78551532 74.7342618,7.5810585 L74.7342618,11.3949861 L74.8278552,11.3949861 L74.8044568,11.4651811 L74.8044568,11.4651811 Z" id="Path"></path>
                    <path d="M85.7899721,11.4651811 C85.7899721,11.9331476 85.7899721,12.3777159 85.9069638,12.4947075 C86.0239554,12.6116992 86.1292479,12.7169916 86.4802228,12.7169916 L87.2874652,12.7169916 L87.2874652,13.2902507 C86.5972145,13.2902507 85.9069638,13.2902507 85.0061281,13.2902507 C84.1052925,13.2902507 83.4150418,13.2902507 82.7247911,13.2902507 L82.7247911,12.7169916 L83.5320334,12.7169916 C83.8713092,12.7169916 84,12.6 84.1052925,12.4947075 C84.2222841,12.2724234 84.2222841,11.9214485 84.2222841,11.4651811 L84.2222841,7.33537604 C84.2222841,6.76211699 84.2222841,6.30584958 84.1052925,6.17715877 C83.9883008,6.04846797 83.7660167,5.95487465 83.4150418,5.95487465 L82.7247911,5.95487465 L82.7247911,5.48690808 C83.7543175,5.36991643 84.9008357,5.0189415 85.5910864,4.67966574 L85.708078,4.79665738 L85.708078,11.4417827 L85.8016713,11.4417827 L85.8016713,11.4651811 L85.7899721,11.4651811 L85.7899721,11.4651811 Z M85.9069638,1.73147632 C85.9069638,2.30473538 85.4389972,2.76100279 84.8774373,2.76100279 C84.3041783,2.76100279 83.8479109,2.29303621 83.8479109,1.73147632 C83.8479109,1.16991643 84.3158774,0.701949861 84.8774373,0.701949861 C85.4389972,0.701949861 85.9069638,1.16991643 85.9069638,1.73147632 Z" id="Shape"></path>
                    <path d="M92.6456825,11.4651811 C92.3064067,12.1554318 92.1777159,12.8456825 91.8384401,13.4072423 L90.9259053,13.4072423 L87.7086351,5.97827298 C87.5916435,5.75598886 87.486351,5.40501393 87.135376,5.40501393 L86.562117,5.40501393 L86.562117,4.93704735 C87.2523677,4.93704735 87.9426184,4.93704735 88.7381616,4.93704735 C89.4284123,4.93704735 90.118663,4.93704735 90.9142061,4.93704735 L90.9142061,5.40501393 L90.0016713,5.40501393 C89.6623955,5.40501393 89.5337047,5.52200557 89.5337047,5.74428969 C89.5337047,5.86128134 89.5337047,6.08356546 89.6506964,6.43454039 L91.8267409,11.6874652 C92.1660167,10.8802228 92.6339833,9.97938719 92.9849582,9.16044568 L93.7922006,7.2183844 C94.0144847,6.64512535 94.1314763,6.18885794 94.1314763,5.83788301 C94.1314763,5.49860724 94.0144847,5.36991643 93.6635097,5.36991643 L92.8562674,5.36991643 L92.8562674,4.90194986 C93.4295265,4.90194986 94.0144847,4.90194986 94.5643454,4.90194986 C95.1142061,4.90194986 95.7225627,4.90194986 96.2724234,4.90194986 L96.2724234,5.36991643 L95.6991643,5.36991643 C95.2311978,5.36991643 94.891922,6.06016713 94.6696379,6.63342618 L92.6456825,11.4651811 Z" id="Path"></path>
                    <path d="M103.619499,8.02562674 C103.619499,8.24791086 103.619499,8.49359331 103.619499,8.83286908 C102.461281,9.0551532 101.443454,9.0551532 100.296936,9.0551532 L97.664624,9.0551532 C97.664624,11.2311978 98.6941504,12.7052925 100.987187,12.7052925 C101.888022,12.7052925 102.578273,12.2373259 103.268524,11.7927577 L103.490808,12.0150418 L103.151532,12.5883008 C103.03454,12.810585 101.443454,13.6178273 100.179944,13.6178273 C97.4306407,13.6178273 95.956546,11.9097493 95.956546,9.39442897 C95.956546,7.55766017 96.4245125,6.5281337 97.3370474,5.86128134 C97.6763231,5.63899721 98.0272981,5.28802228 98.4952646,5.17103064 C99.1855153,4.83175487 99.6534819,4.70306407 100.343733,4.70306407 C102.145404,4.70306407 103.619499,5.97827298 103.619499,8.02562674 Z M97.5593315,8.14261838 L97.5593315,8.36490251 C98.3665738,8.48189415 99.1504178,8.48189415 99.8406685,8.48189415 C100.530919,8.48189415 101.22117,8.48189415 101.899721,8.48189415 C101.899721,6.77381616 101.326462,5.39331476 99.9576602,5.39331476 C98.7175487,5.28802228 97.5593315,6.32924791 97.5593315,8.14261838 Z" id="Shape"></path>
                    <path d="M105.678552,7.33537604 C105.678552,6.76211699 105.678552,6.30584958 105.56156,6.17715877 C105.444568,6.06016713 105.222284,5.95487465 104.871309,5.95487465 L104.181058,5.95487465 L104.181058,5.48690808 C105.210585,5.36991643 106.357103,5.0189415 107.047354,4.67966574 L107.164345,4.79665738 L107.164345,6.64512535 L107.164345,6.64512535 L108.193872,5.48690808 C108.661838,4.91364903 109.223398,4.67966574 109.691365,4.67966574 C110.030641,4.67966574 110.381616,4.79665738 110.498607,4.90194986 L110.381616,7.07799443 L110.04234,7.07799443 C109.820056,6.61002786 109.469081,6.27075209 108.77883,6.27075209 C107.971588,6.27075209 107.187744,7.07799443 107.187744,8.32980501 L107.187744,11.5119777 C107.187744,11.9799443 107.187744,12.4245125 107.304735,12.5415042 C107.421727,12.6584958 107.644011,12.7637883 108.111978,12.7637883 L109.024513,12.7637883 L109.024513,13.3370474 C108.111978,13.3370474 107.316435,13.3370474 106.392201,13.3370474 C105.467967,13.3370474 104.801114,13.3370474 104.110864,13.3370474 L104.110864,12.7637883 L104.918106,12.7637883 C105.257382,12.7637883 105.386072,12.6467967 105.491365,12.5415042 C105.608357,12.3192201 105.608357,11.9682451 105.608357,11.5119777 L105.608357,7.28857939 L105.678552,7.28857939 L105.678552,7.33537604 L105.678552,7.33537604 Z" id="Path"></path>
                    <path d="M111.972702,10.6696379 L111.972702,11.4768802 C111.972702,12.6350975 113.236212,13.0679666 114.371031,13.0679666 C115.529248,13.0679666 116.547075,12.3777159 116.547075,11.3598886 C116.547075,10.7866295 116.207799,10.3303621 115.64624,10.108078 C114.838997,9.88579387 113.797772,9.64011142 112.896936,9.4178273 C111.9961,9.07855153 111.30585,8.50529248 111.30585,7.47576602 C111.30585,5.53370474 113.013928,4.84345404 114.745404,4.84345404 C115.64624,4.84345404 116.33649,5.06573816 117.143733,5.31142061 C117.143733,6.00167131 117.026741,6.69192201 117.026741,7.37047354 L116.558774,7.37047354 L116.558774,6.90250696 C116.558774,5.98997214 115.529248,5.40501393 114.38273,5.40501393 C112.791643,5.40501393 112.534262,6.31754875 112.534262,6.90250696 C112.534262,7.7097493 113.107521,8.16601671 114.476323,8.4 C116.652368,8.73927577 117.658496,9.31253482 117.658496,10.681337 C117.658496,12.74039 115.599443,13.7699164 113.657382,13.7699164 C112.744847,13.7699164 111.949304,13.6529248 111.130362,13.3019499 C111.352646,12.4947075 111.352646,11.5938719 111.352646,10.7749304 L111.925905,10.7749304 L111.925905,10.6579387 L111.984401,10.6579387 L111.972702,10.6696379 L111.972702,10.6696379 Z" id="Path"></path>
                    <path d="M121.460724,11.4651811 C121.460724,11.9331476 121.460724,12.3777159 121.577716,12.4947075 C121.694708,12.6116992 121.8,12.7169916 122.150975,12.7169916 L122.958217,12.7169916 L122.958217,13.2902507 C122.267967,13.2902507 121.577716,13.2902507 120.67688,13.2902507 C119.776045,13.2902507 119.085794,13.2902507 118.395543,13.2902507 L118.395543,12.7169916 L119.202786,12.7169916 C119.542061,12.7169916 119.670752,12.6 119.776045,12.4947075 C119.893036,12.2724234 119.893036,11.9214485 119.893036,11.4651811 L119.893036,7.33537604 C119.893036,6.76211699 119.893036,6.30584958 119.776045,6.17715877 C119.659053,6.04846797 119.436769,5.95487465 119.085794,5.95487465 L118.395543,5.95487465 L118.395543,5.48690808 C119.42507,5.36991643 120.571588,5.0189415 121.261838,4.67966574 L121.37883,4.79665738 L121.37883,11.4417827 L121.472423,11.4417827 L121.460724,11.4651811 L121.460724,11.4651811 Z M121.694708,1.73147632 C121.694708,2.30473538 121.226741,2.76100279 120.665181,2.76100279 C120.091922,2.76100279 119.635655,2.29303621 119.635655,1.73147632 C119.635655,1.16991643 120.103621,0.701949861 120.665181,0.701949861 C121.121448,0.713649025 121.694708,1.16991643 121.694708,1.73147632 Z" id="Shape"></path>
                    <path d="M122.712535,6.43454039 L122.712535,6.09526462 L124.093036,5.40501393 L124.093036,4.15320334 C124.093036,3.68523677 124.093036,3.24066852 123.976045,2.65571031 C124.666295,2.43342618 125.239554,2.18774373 125.567131,1.96545961 L125.789415,2.18774373 C125.672423,2.99498607 125.567131,4.0362117 125.567131,4.82005571 L125.567131,5.51030641 L128.09415,5.39331476 L127.977159,6.42284123 L125.695822,6.42284123 L125.695822,11.2311978 C125.695822,12.0384401 125.918106,12.4947075 126.725348,12.4947075 C127.193315,12.4947075 127.532591,12.2724234 127.754875,12.1554318 L127.977159,12.4947075 L127.064624,13.4072423 C126.947632,13.6295265 126.257382,13.6295265 125.906407,13.6295265 C125.005571,13.6295265 124.057939,13.1615599 124.057939,11.6874652 L124.057939,6.41114206 L122.712535,6.43454039 Z" id="Path"></path>
                    <path d="M135.52312,6.43454039 C135.640111,6.21225627 135.640111,6.09526462 135.640111,5.96657382 C135.640111,5.62729805 135.417827,5.49860724 134.832869,5.49860724 L134.364903,5.49860724 L134.364903,5.03064067 C134.938162,5.03064067 135.52312,5.03064067 136.072981,5.03064067 C136.64624,5.03064067 137.231198,5.03064067 137.781058,5.03064067 L137.781058,5.49860724 L137.313092,5.49860724 C136.845125,5.49860724 136.50585,6.0718663 135.815599,7.67465181 L132.16546,16.2618384 C131.592201,17.6423398 130.913649,18.5431755 129.416156,18.5431755 C129.07688,18.5431755 128.725905,18.4261838 128.503621,18.3208914 L128.971588,16.94039 L129.193872,16.94039 C129.416156,17.1626741 129.884123,17.4083565 130.094708,17.4083565 L130.094708,17.4083565 C131.124234,17.2913649 131.685794,15.8172702 132.036769,15.0100279 L132.504735,13.8518106 L129.533148,6.42284123 C129.193872,5.73259053 128.959889,5.51030641 128.620613,5.51030641 L128.281337,5.51030641 L128.281337,5.04233983 C128.971588,5.04233983 129.661838,5.04233983 130.457382,5.04233983 C131.147632,5.04233983 131.837883,5.04233983 132.633426,5.04233983 L132.633426,5.51030641 L131.943175,5.51030641 C131.6039,5.51030641 131.369916,5.62729805 131.369916,5.97827298 C131.369916,6.2005571 131.369916,6.44623955 131.486908,6.66852368 L133.545961,11.6991643 L135.52312,6.43454039 Z" id="Path"></path>
                </g>
            </g>
        </g>
    </g>
</svg>