<?xml version="1.0" encoding="UTF-8"?>
<svg width="12px" height="12px" viewBox="0 0 12 12" version="1.1" xmlns="http://www.w3.org/2000/svg" xmlns:xlink="http://www.w3.org/1999/xlink">
    <!-- Generator: Sketch 63.1 (92452) - https://sketch.com -->
    <title>icon_search_white_small</title>
    <desc>Created with Sketch.</desc>
    <g id="Page-1" stroke="none" stroke-width="1" fill="none" fill-rule="evenodd">
        <path d="M1.48582938,8.6669544 C1.93756294,9.11926342 2.48021867,9.48122572 3.10056107,9.75226586 C3.73298806,10.023306 4.39188606,10.1527838 5.07667961,10.1527838 C6.13552007,10.1527838 7.09135376,9.85584808 7.95684074,9.26140124 L10.4238239,11.7283844 C10.6045173,11.9090778 10.8116818,12 11.0694864,12 C11.3278665,12 11.5350309,11.9090778 11.7283844,11.7283844 C11.9090778,11.5344555 12,11.3278665 12,11.0694864 C12,10.8243418 11.9090778,10.6045173 11.7283844,10.4238239 L9.26140124,7.95684074 C9.85584808,7.09135376 10.1527838,6.13552007 10.1527838,5.07667961 C10.1527838,4.39188606 10.023306,3.73298806 9.75226586,3.09998561 C9.48122572,2.48021867 9.11926342,1.93756294 8.66752985,1.48582938 C8.21522083,1.03352036 7.6725651,0.672133506 7.05279816,0.400517911 C6.41979571,0.129477773 5.76089771,0 5.07667961,0 C4.39188606,0 3.73298806,0.129477773 3.10056107,0.400517911 C2.48021867,0.672133506 1.93756294,1.03352036 1.48582938,1.48582938 C1.03352036,1.93756294 0.672133506,2.48021867 0.400517911,3.09998561 C0.129477773,3.73298806 0,4.39188606 0,5.07667961 C0,5.76089771 0.129477773,6.41979571 0.400517911,7.05279816 C0.672133506,7.6725651 1.03352036,8.21522083 1.48582938,8.6669544 L1.48582938,8.6669544 Z M5.07667961,1.84721623 C5.96748669,1.84721623 6.72996691,2.15738743 7.36296936,2.79038987 C7.99539635,3.42339232 8.30556754,4.18529708 8.30556754,5.07667961 C8.30556754,5.96748669 7.99539635,6.72996691 7.36296936,7.36296936 C6.72996691,7.99539635 5.96748669,8.30556754 5.07667961,8.30556754 C4.18529708,8.30556754 3.42339232,7.99539635 2.79038987,7.36296936 C2.15738743,6.72996691 1.84721623,5.96748669 1.84721623,5.07667961 C1.84721623,4.18529708 2.15738743,3.42339232 2.79038987,2.79038987 C3.42339232,2.15738743 4.18529708,1.84721623 5.07667961,1.84721623 L5.07667961,1.84721623 Z" id="icon-search" fill="#FFFFFF"></path>
    </g>
</svg>