<?xml version="1.0" encoding="UTF-8"?>
<svg width="43px" height="12px" viewBox="0 0 43 12" version="1.1" xmlns="http://www.w3.org/2000/svg" xmlns:xlink="http://www.w3.org/1999/xlink">
    <!-- Generator: Sketch 63.1 (92452) - https://sketch.com -->
    <title>Search</title>
    <desc>Created with Sketch.</desc>
    <g id="Page-1" stroke="none" stroke-width="1" fill="none" fill-rule="evenodd" fill-opacity="0.8">
        <path d="M3.792,11.208 C5.792,11.208 7.168,9.976 7.168,8.328 C7.168,6.52 5.712,5.864 4.272,5.432 C2.736,4.952 1.744,4.536 1.744,3.432 C1.744,2.52 2.464,1.72 3.968,1.72 C4.864,1.72 5.84,2.04 6.592,2.552 L6.96,1.656 C6.112,1.112 5.104,0.792 3.952,0.792 C2.096,0.792 0.752,1.928 0.752,3.512 C0.752,5.288 2.256,5.896 3.664,6.312 C5.232,6.776 6.192,7.24 6.192,8.408 C6.192,9.464 5.216,10.296 3.824,10.296 C2.688,10.296 1.744,9.912 0.944,9.368 L0.576,10.28 C1.488,10.856 2.592,11.208 3.792,11.208 Z M12.048,11.208 C12.96,11.208 13.776,10.968 14.4,10.584 L14.208,9.672 C13.648,10.04 12.88,10.28 12.08,10.28 C10.544,10.28 9.552,9.096 9.52,7.448 L9.52,7.368 L14.48,7.336 C14.576,7.016 14.64,6.552 14.64,6.168 C14.64,4.52 13.584,3.464 11.968,3.464 C9.984,3.464 8.512,5.096 8.512,7.4 C8.512,9.624 9.936,11.208 12.048,11.208 Z M9.584,6.584 C9.744,5.368 10.592,4.36 11.904,4.36 C13.056,4.36 13.664,5.128 13.664,6.248 C13.664,6.328 13.664,6.488 13.648,6.568 L9.584,6.584 Z M18.208,11.208 C19.072,11.208 19.856,10.728 20.352,10.12 L20.4,10.12 C20.512,10.84 21.04,11.224 22,11.16 L22.064,10.344 C21.424,10.36 21.328,10.136 21.328,9.608 L21.328,6.088 L21.328,6.088 C21.344,4.232 20.4,3.464 18.704,3.464 C17.744,3.464 16.64,3.88 15.984,4.344 L16.208,5.272 C16.832,4.808 17.808,4.392 18.608,4.392 C19.824,4.392 20.336,4.984 20.336,6.136 L20.336,6.568 L20.336,6.568 C16.928,6.76 15.888,7.848 15.888,9.176 C15.888,10.344 16.864,11.208 18.208,11.208 Z M18.432,10.344 C17.568,10.344 16.928,9.848 16.928,9.064 C16.928,8.088 17.824,7.528 20.336,7.24 L20.336,9.384 C19.888,9.896 19.216,10.344 18.432,10.344 Z M24.528,11 L24.528,6.296 C25.104,4.984 25.824,4.408 26.592,4.408 C27.008,4.408 27.392,4.536 27.712,4.728 L27.968,3.8 C27.632,3.608 27.168,3.464 26.688,3.464 C25.728,3.464 25.008,4.088 24.528,5.032 L24.528,3.464 L23.536,3.672 L23.536,11 L24.528,11 Z M32.336,11.208 C33.184,11.208 33.984,10.968 34.608,10.584 L34.4,9.672 C33.84,10.04 33.104,10.28 32.368,10.28 C30.816,10.28 29.776,9.112 29.776,7.32 C29.776,5.576 30.768,4.392 32.352,4.392 C33.12,4.392 33.824,4.616 34.384,4.984 L34.64,4.088 C34.016,3.688 33.248,3.464 32.352,3.464 C30.272,3.464 28.752,5.064 28.752,7.352 C28.752,9.624 30.128,11.208 32.336,11.208 Z M37.44,11 L37.44,5.448 C38.048,4.84 38.864,4.408 39.712,4.408 C40.768,4.408 41.28,4.984 41.28,6.264 L41.28,11 L42.272,11 L42.272,5.976 C42.272,4.376 41.408,3.464 39.984,3.464 C39.168,3.464 38.208,3.864 37.44,4.632 L37.44,0.008 L37.44,0.008 L36.448,0.216 L36.448,11 L37.44,11 Z" id="Search" fill="#777777" fill-rule="nonzero"></path>
    </g>
</svg>